<?xml version="1.0" encoding="UTF-8"?>
<svg width="996px" height="300px" viewBox="0 0 996 300" version="1.1" xmlns="http://www.w3.org/2000/svg" xmlns:xlink="http://www.w3.org/1999/xlink">
    <!-- Generator: Sketch 58 (84663) - https://sketch.com -->
    <title>Amazon_logo</title>
    <desc>Created with Sketch.</desc>
    <g id="Page-1" stroke="none" stroke-width="1" fill="none" fill-rule="evenodd">
        <g id="Amazon_logo" fill="#FFFFFF">
            <path d="M616.861234,234.697179 C559.02381,277.280343 475.191981,300 403.014377,300 C301.80968,300 210.699505,262.609927 141.771134,200.422961 C136.355654,195.532793 141.207905,188.86838 147.706518,192.676604 C222.093674,235.908902 314.07038,261.917508 409.079735,261.917508 C473.155766,261.917508 543.643792,248.675166 608.45638,221.195219 C618.24758,217.040736 626.435802,227.599995 616.861234,234.697179" id="path8"></path>
            <path d="M642.040579,207.689054 C634.601944,198.276781 592.683219,203.241965 573.867937,205.443921 C568.135811,206.13474 567.260718,201.212713 572.423951,197.672295 C605.810173,174.487023 660.593339,181.179244 666.981782,188.950831 C673.370215,196.765624 665.31904,250.95098 633.945607,276.813117 C629.132391,280.785258 624.537961,278.669684 626.682041,273.402247 C633.726831,256.045663 649.522951,217.144503 642.040579,207.689054" id="path10"></path>
            <path d="M576.161704,32.703009 L576.161704,9.97313397 C576.161704,6.53317299 578.750803,4.22535211 581.85773,4.22535211 L682.70318,4.22535211 C685.939574,4.22535211 688.528673,6.57672246 688.528673,9.97313397 L688.528673,29.4372278 C688.485551,32.703009 685.766965,36.970304 680.933955,43.7195958 L628.677287,119.006886 C648.09556,118.527937 668.592612,121.445337 686.198498,131.460425 C690.168442,133.724697 691.247239,137.034027 691.549296,140.299842 L691.549296,164.553761 C691.549296,167.863081 687.924551,171.738449 684.127207,169.735453 C653.101139,153.319418 611.891284,151.534125 577.5857,169.909641 C574.090422,171.825578 570.422535,167.993724 570.422535,164.684375 L570.422535,141.6497 C570.422535,137.948481 570.465658,131.634593 574.133545,126.017446 L634.675369,38.4072565 L581.987177,38.4072565 C578.750803,38.4072565 576.161704,36.0994546 576.161704,32.703009" id="path12"></path>
            <path d="M205.490645,174.647887 L174.542157,174.647887 C171.582261,174.430167 169.231738,172.209146 169.014085,169.378405 L169.014085,10.466752 C169.014085,7.28764656 171.669309,4.76176233 174.977435,4.76176233 L203.836572,4.76176233 C206.840046,4.89232235 209.234058,7.2005205 209.451722,10.0747768 L209.451722,30.8478588 L210.017586,30.8478588 C217.547941,10.7715681 231.694568,1.4084507 250.759894,1.4084507 C270.129902,1.4084507 282.230727,10.7715681 290.936349,30.8478588 C298.423186,10.7715681 315.44267,1.4084507 333.680971,1.4084507 C346.652351,1.4084507 360.842516,6.76502429 369.504619,18.784655 C379.29844,32.1543135 377.296137,51.5773348 377.296137,68.6051651 L377.252638,168.899395 C377.252638,172.078486 374.597414,174.647887 371.289288,174.647887 L340.384299,174.647887 C337.293828,174.430167 334.812728,171.947856 334.812728,168.899395 L334.812728,84.6748778 C334.812728,77.9682796 335.422081,61.2453145 333.942153,54.8870864 C331.635169,44.2175173 324.714206,41.2125798 315.747382,41.2125798 C308.260545,41.2125798 300.425499,46.2207623 297.247939,54.2338671 C294.07038,62.246954 294.375081,75.6601345 294.375081,84.6748778 L294.375081,168.899395 C294.375081,172.078486 291.719867,174.647887 288.411721,174.647887 L257.506782,174.647887 C254.372751,174.430167 251.935171,171.947856 251.935171,168.899395 L251.891672,84.6748778 C251.891672,66.9502883 254.808019,40.8641917 232.826355,40.8641917 C210.58346,40.8641917 211.454025,66.29702 211.454025,84.6748778 L211.454025,168.899395 C211.454025,172.078486 208.7988,174.647887 205.490675,174.647887" id="path14"></path>
            <path d="M776.198691,1.40822589 C821.798705,1.40822589 846.478875,40.7538232 846.478875,90.7826703 C846.478875,139.117813 819.205292,177.464564 776.198691,177.464564 C731.419902,177.464564 707.042256,138.118968 707.042256,89.0889807 C707.042256,39.7549789 731.722456,1.40822589 776.198691,1.40822589 M776.459396,33.5126169 C753.908648,33.5126169 752.488265,64.4549939 752.488265,83.7398508 C752.488265,103.068018 752.1872,144.324547 776.201197,144.324547 C799.913919,144.324547 801.032866,111.041989 801.032866,90.7603663 C801.032866,77.412691 800.473392,61.4647823 796.471043,48.8104456 C793.028177,37.8029547 786.185512,33.5126169 776.459396,33.5126169" id="path16"></path>
            <path d="M905.336758,174.647887 L874.612189,174.647887 C871.531037,174.430167 869.057452,171.947856 869.057452,168.899395 L869.014085,9.94412973 C869.274466,7.02631942 871.834865,4.76176233 874.959384,4.76176233 L903.557564,4.76176233 C906.248104,4.89232235 908.461317,6.72148628 909.068894,9.20380148 L909.068894,33.5043401 L909.633014,33.5043401 C918.268904,11.7732086 930.376429,1.4084507 951.684013,1.4084507 C965.527435,1.4084507 979.023691,6.41663713 987.702948,20.1346837 C995.774648,32.8511038 995.774648,54.2338671 995.774648,69.6067716 L995.774648,169.639735 C995.427492,172.426866 992.867093,174.647887 989.829388,174.647887 L958.887814,174.647887 C956.067034,174.430167 953.723629,172.339796 953.419891,169.639735 L953.419891,83.3248522 C953.419891,65.9486488 955.416109,40.5157875 934.108515,40.5157875 C926.600976,40.5157875 919.700953,45.567543 916.272645,53.2322096 C911.933032,62.9437464 911.368872,72.611709 911.368872,83.3248522 L911.368872,168.899395 C911.325505,172.078486 908.634915,174.647887 905.336808,174.647887" id="path18"></path>
            <path d="M495.230394,97.8718459 C495.230394,109.989748 495.538279,120.095297 489.380471,130.857059 C484.410247,139.606482 476.49307,144.987348 467.740198,144.987348 C455.732467,144.987348 448.694969,135.887954 448.694969,122.457638 C448.694969,95.946982 472.578456,91.1348208 495.230394,91.1348208 L495.230394,97.8718459 M526.602771,173.456218 C524.557365,175.276143 521.597991,175.406129 519.291463,174.192866 C509.020791,165.699875 507.149456,161.75671 501.535421,153.653699 C484.562726,170.899665 472.507749,176.056113 450.530304,176.056113 C424.461996,176.056113 404.225354,160.066743 404.225354,128.044719 C404.225354,103.042361 417.803523,86.0130369 437.213308,77.6933728 C454.011902,70.3269732 477.468989,69.0270486 495.399132,66.9904658 L495.399132,63.0039577 C495.399132,55.6808924 495.964897,47.0145683 491.612922,40.6881855 C487.870232,35.0117218 480.645934,32.6718142 474.248553,32.6718142 C462.454699,32.6718142 451.966475,38.6949061 449.398795,51.1744083 C448.876561,53.9476503 446.831154,56.6775411 444.002342,56.8075349 L414.017282,53.6009734 C411.493122,53.037693 408.66436,51.0010774 409.404196,47.1445949 C416.280311,10.9193712 449.181223,-0.00022481367 478.600518,-0.00022481367 C493.658348,-0.00022481367 513.329245,3.98629224 525.21013,15.3391659 C540.26793,29.3352749 538.831799,48.0112 538.831799,68.3337426 L538.831799,116.345162 C538.831799,130.774611 544.837517,137.10099 550.495072,144.900715 C552.453487,147.673909 552.888681,151.010442 550.364391,153.09036 C544.05404,158.333512 532.825941,168.083119 526.646151,173.542893 L526.602661,173.456089" id="path28"></path>
            <path d="M89.7416173,97.8718459 C89.7416173,109.989748 90.0421522,120.095297 84.03088,130.857059 C79.1788742,139.606482 71.4930036,144.987348 62.9054284,144.987348 C51.1833883,144.987348 44.3562807,135.887954 44.3562807,122.457638 C44.3562807,95.946982 67.6715325,91.1348208 89.7416173,91.1348208 L89.7416173,97.8718459 M121.180241,173.456218 C119.154835,175.276143 116.224411,175.406129 113.940437,174.192866 C103.770288,165.699875 101.960315,161.75671 96.3581035,153.653699 C79.5514511,170.899665 67.657546,176.056113 45.851968,176.056113 C20.0817615,176.056113 2.20868589e-06,160.066743 2.20868589e-06,128.044719 C2.20868589e-06,103.042361 13.4884117,86.0130369 32.6652209,77.6933728 C49.2994899,70.3269732 72.5271424,69.0270486 90.281878,66.9904658 L90.281878,63.0039577 C90.281878,55.6808924 90.842102,47.0145683 86.5757945,40.6881855 C82.8265935,35.0117218 75.6730198,32.6718142 69.3812817,32.6718142 C57.7028408,32.6718142 47.2740771,38.6949061 44.731538,51.1744083 C44.2143988,53.9476503 42.188984,56.6775411 39.4309837,56.8075349 L9.6961461,53.6009734 C7.19669059,53.037693 4.4386732,51.0010774 5.12817757,47.1445949 C11.9801223,10.9193712 44.516059,-0.00022481367 73.647606,-0.00022481367 C88.5580928,-0.00022481367 108.036565,3.98629224 119.801224,15.3391659 C134.711749,29.3352749 133.289627,48.0112 133.289627,68.3337426 L133.289627,116.345162 C133.289627,130.774611 139.236624,137.10099 144.838843,144.900715 C146.821155,147.673909 147.252091,151.010442 144.752614,153.09036 C138.503995,158.333512 127.385766,168.083119 121.266391,173.542893 L121.180261,173.456089" id="path30"></path>
        </g>
    </g>
</svg>