<?xml version="1.0" encoding="UTF-8"?>
<svg width="1259px" height="300px" viewBox="0 0 1259 300" version="1.1" xmlns="http://www.w3.org/2000/svg" xmlns:xlink="http://www.w3.org/1999/xlink">
    <!-- Generator: Sketch 58 (84663) - https://sketch.com -->
    <title>apple-music-logo</title>
    <desc>Created with Sketch.</desc>
    <g id="Page-1" stroke="none" stroke-width="1" fill="none" fill-rule="evenodd">
        <g id="apple-music-logo" fill="#FFFFFF" fill-rule="nonzero">
            <path d="M198.603659,159.013346 C198.204486,134.605967 208.724984,115.60621 230.142122,102.006385 C218.063317,84.4066102 200.250245,74.5144293 176.695231,72.3029192 C168.316447,71.5144678 157.60404,73.4990577 144.573361,78.3066884 C130.556266,83.5143139 122.664934,86.1027423 120.914716,86.1027423 C117.214694,86.1027423 110.110192,83.9143088 99.5820176,79.5028269 C89.0768728,75.1028833 80.1146831,72.9029115 72.7146396,72.9029115 C60.2558526,73.106755 48.664498,76.5567108 37.959767,83.2527788 C27.2511977,89.956539 18.6881805,99.1141139 12.2668772,110.702427 C4.08000327,125.109934 0,142.31356 0,162.309458 C0,180.309227 3.00914634,198.30515 9.04279181,216.316457 C14.6887794,233.520083 21.9045895,248.619889 30.6556784,261.608185 C38.4357034,273.411879 45.2753702,282.011769 51.0979149,287.419392 C59.4805368,295.815438 68.0358776,299.823079 76.8099956,299.415392 C82.452145,299.207702 89.8445122,297.111575 98.9986117,293.100088 C107.557791,289.319368 116.132323,287.415546 124.703016,287.415546 C132.682627,287.415546 140.950103,289.307829 149.528473,293.100088 C159.062554,297.111575 166.857932,299.107704 172.891578,299.107704 C181.849929,298.715401 190.217198,294.811605 198.016414,287.419392 C200.73002,285.007885 203.704622,281.711773 206.913355,277.511827 C210.61764,272.619859 214.174688,267.617675 217.579704,262.512019 C220.416998,258.109334 223.096488,253.606523 225.61305,249.012192 C228.312695,244.064808 230.702123,238.953691 232.767449,233.708542 C233.730836,231.50857 234.605945,229.262445 235.392775,226.962475 C236.168091,224.662504 236.947245,222.320227 237.726399,219.916411 C230.522104,216.724145 223.997169,212.204972 218.159272,206.4012 C205.324341,193.620595 198.799407,177.813105 198.603659,159.013346 L198.603659,159.013346 Z M410.383847,212.497276 L408.967552,212.497276 L349.655896,76.6759401 L303.079377,76.6759401 L303.079377,295.815438 L343.672147,295.815438 L343.672147,153.890335 L345.556702,153.890335 L395.123176,266.58889 L423.591082,266.58889 L473.000191,153.890335 L474.892422,153.890335 L474.892422,295.815438 L515.953452,295.815438 L515.953452,76.6759401 L469.695503,76.6759401 L410.383847,212.497276 Z M161.795351,48.0070768 C172.1201,35.0033974 177.282475,21.0035769 177.282475,5.99992308 L177.282475,3.00380764 C177.282475,1.99612825 177.182682,0.99998718 176.990772,0 C169.782638,0.399994872 162.144627,2.70381149 154.057546,6.89606544 C145.98198,11.1037038 139.315032,16.4113281 134.049025,22.7997077 C123.540042,35.4110845 118.277875,48.9032192 118.277875,63.3068807 L118.277875,66.1491519 C118.277875,67.0568326 118.377668,68.0029743 118.569578,69.0106537 C134.736063,70.6067871 149.144654,63.6030307 161.795351,48.0070768 Z M990.38529,76.6759401 L1036.00994,76.6759401 L1036.00994,295.819284 L990.38529,295.819284 L990.38529,76.6759401 Z M1173.80888,111.510109 C1200.86817,111.510109 1215.17697,132.382918 1215.17697,154.859553 L1258.92857,154.859553 L1258.92857,150.20192 C1258.92857,107.821695 1226.67236,72.5067627 1173.49031,72.5067627 C1116.53147,72.5067627 1082.55191,110.071666 1082.55191,174.132383 L1082.55191,198.858989 C1082.55191,262.900476 1116.21674,300 1173.3291,300 C1227.92746,300 1258.92857,264.185075 1258.92857,224.377893 L1258.92857,219.56257 L1215.1808,219.56257 C1215.1808,242.208433 1201.1829,260.988962 1174.13129,260.988962 C1146.43102,260.988962 1128.80602,241.239215 1128.80602,199.008987 L1128.80602,174.301612 C1128.80602,132.217536 1146.59223,111.510109 1173.80888,111.510109 L1173.80888,111.510109 Z M690.453234,215.058781 C690.453234,244.446866 673.30417,260.654351 648.133275,260.654351 C622.801176,260.654351 605.655951,244.60071 605.655951,215.058781 L605.655951,76.6759401 L560.33836,76.6759401 L560.33836,221.481776 C560.33836,268.211946 593.373721,299.996154 648.125599,299.996154 C702.723949,299.996154 735.916676,268.211946 735.916676,221.481776 L735.916676,76.6759401 L690.453234,76.6759401 L690.453234,215.058781 Z M886.86912,168.186305 L854.305858,160.809477 C835.114874,156.782605 825.043445,148.278868 825.043445,135.590569 C825.043445,118.740785 838.726617,108.140921 860.765543,108.140921 C885.621706,108.140921 898.049788,122.4292 899.147512,137.844387 L941.628675,137.844387 C941.156577,99.1487289 908.908047,72.1798438 860.915233,72.1798438 C815.451791,72.1798438 779.576165,96.1064602 779.576165,139.128986 C779.576165,176.374662 804.754736,193.701363 834.961346,200.301278 L867.209876,207.839643 C888.922556,212.816502 899.934342,220.047179 899.934342,234.966218 C899.934342,251.996769 886.40086,263.55816 861.076437,263.55816 C833.855945,263.55816 819.535633,249.104499 818.28438,232.885476 L774.540451,232.885476 C775.18143,263.87354 795.631343,299.996154 858.880989,299.996154 C912.055368,299.996154 944.944877,273.508032 944.944877,230.466276 C944.929524,190.651402 918.338496,175.078525 886.86912,168.186305 Z" id="Shape"></path>
        </g>
    </g>
</svg>