<?xml version="1.0" encoding="UTF-8"?>
<svg width="1909px" height="300px" viewBox="0 0 1909 300" version="1.1" xmlns="http://www.w3.org/2000/svg" xmlns:xlink="http://www.w3.org/1999/xlink">
    <!-- Generator: Sketch 58 (84663) - https://sketch.com -->
    <title>bandcamp</title>
    <desc>Created with Sketch.</desc>
    <g id="Page-1" stroke="none" stroke-width="1" fill="none" fill-rule="evenodd">
        <g id="bandcamp" transform="translate(-0.000000, 0.000000)" fill="#FFFFFF" fill-rule="nonzero">
            <polygon id="Path" points="273.782008 235.831481 0 235.831481 127.851966 0 401.636873 0"></polygon>
            <g id="Group" transform="translate(401.004928, 0.000000)">
                <path d="M82.044642,90.3565562 C51.3151029,90.3565562 35.6150353,114.525075 35.6150353,150.933424 C35.6150353,185.350275 52.592521,211.18079 82.044642,211.18079 C115.351242,211.18079 127.836506,180.723741 127.836506,150.933424 C127.814282,119.825104 112.120978,90.3565562 82.0340129,90.3565562 M0.394240989,0 L36.8953522,0 L36.8953522,87.3765581 L37.5417915,87.3765581 C47.4673882,70.8319644 68.2790608,60.5672046 86.852836,60.5672046 C139.037588,60.5672046 164.342449,101.624312 164.342449,151.606919 C164.342449,197.601701 141.931588,240.963378 92.9326505,240.963378 C70.5169582,240.963378 46.5020775,235.349309 35.6121364,212.835057 L34.9782588,212.835057 L34.9782588,236.344574 L0.391342159,236.344574 L0.391342159,0.00579766161 L0.394240989,0 M360.534351,210.950817 C339.714948,211.186588 337.565948,211.186588 335.977389,211.186588 C329.255967,211.186588 327.329211,207.54469 327.329211,198.275196 L327.329211,110.218379 C327.329211,74.1501594 293.391632,60.5672046 261.039714,60.5672046 C224.535704,60.5672046 188.359262,73.471833 185.805392,117.507972 L222.301672,117.507972 C223.907624,98.9689825 238.308049,90.3565562 258.803749,90.3565562 C273.530776,90.3565562 293.065997,94.009083 293.065997,113.533675 C293.065997,135.70973 269.690791,132.7278 243.433182,137.702193 C212.69398,141.33153 179.715915,148.302251 179.715915,190.980771 C179.715915,224.423616 206.607402,240.963378 236.384192,240.963378 C255.920379,240.963378 279.291719,234.672915 293.709537,220.135279 C296.57938,235.680742 307.15818,240.963378 321.88424,240.963378 L362.120012,238.474249 L360.534351,210.950817 Z M290.894772,178.746739 C290.894772,202.575128 265.916514,211.190453 249.907237,211.190453 C237.094405,211.190453 216.275002,206.208329 216.275002,189.337134 C216.275002,169.47048 230.37105,163.508552 246.067253,160.85902 C262.070731,157.882887 279.684027,158.22205 290.894772,150.609721 L290.894772,178.746739 Z" id="Shape"></path>
                <path d="M447.103102,60.5662383 C425.329017,60.5662383 406.434438,72.1499662 395.544497,91.0290849 L394.906754,90.3565562 L394.906754,65.2063001 L360.323703,65.2063001 L360.151705,210.950817 L361.737366,238.474249 L396.823848,236.331046 L396.823848,135.388926 C396.823848,110.224176 412.518118,90.3613876 436.848971,90.3613876 C458.302251,90.3613876 468.557349,101.952846 469.19026,128.758334 L469.19026,236.335878 L505.708928,236.335878 L505.708928,118.833704 C505.779302,80.4425548 483.03411,60.5720359 447.162045,60.5720359 M612.033047,211.186588 C644.690308,211.186588 658.466519,180.398106 658.466519,150.601024 C658.466519,112.880472 640.858054,90.3565562 612.672722,90.3565562 C578.408542,90.3565562 566.238284,121.805972 566.238284,152.583825 C566.238284,182.045608 580.32177,211.179824 612.039811,211.179824 M693.684414,236.335878 L659.097497,236.335878 L659.097497,213.167456 L658.465552,213.167456 C648.861726,232.697845 628.034593,240.963378 607.225819,240.963378 C555.041067,240.963378 529.737173,200.909267 529.737173,149.612523 C529.737173,87.7157213 565.285535,60.5720359 601.473572,60.5720359 C622.277515,60.5720359 645.327085,68.5215963 656.53783,87.3765581 L657.188134,87.3765581 L657.188134,0.00773021548 L693.687313,0.00773021548 L693.687313,236.341676 L693.687313,236.335878 M838.747705,122.474635 C835.862402,101.620446 821.136342,90.359455 800.966277,90.359455 C782.063001,90.359455 755.493284,100.626147 755.493284,152.59542 C755.493284,181.064837 767.655812,211.190453 799.362257,211.190453 C820.492801,211.190453 835.216929,196.609334 838.747705,172.112281 L875.248816,172.112281 C868.522563,216.467292 841.951879,240.963378 799.362257,240.963378 C747.485747,240.963378 718.989274,202.907527 718.989274,152.59542 C718.989274,100.961446 746.207363,60.5768673 800.642574,60.5768673 C839.06561,60.5768673 871.7364,80.4357909 875.248816,122.476568 L838.807614,122.476568 L838.748671,122.474635 M1070.43966,210.950817 C1049.62122,211.186588 1047.47125,211.186588 1045.88366,211.186588 C1039.16224,211.186588 1037.23548,207.54469 1037.23548,198.275196 L1037.23548,110.218379 C1037.23548,74.1501594 1003.29694,60.5672046 970.945019,60.5672046 C934.441009,60.5672046 898.264567,73.471833 895.711663,117.507972 L932.206977,117.507972 C933.813895,98.9689825 948.213354,90.3565562 968.709054,90.3565562 C983.437047,90.3565562 1002.97227,94.009083 1002.97227,113.533675 C1002.97227,135.70973 979.596096,132.7278 953.338487,137.702193 C922.599285,141.33153 889.621219,148.302251 889.621219,190.980771 C889.621219,224.423616 916.513673,240.963378 946.289497,240.963378 C965.82665,240.963378 989.197024,234.672915 1003.61484,220.135279 C1006.48468,235.680742 1017.06445,240.963378 1031.79051,240.963378 L1072.02628,238.474249 L1070.43966,210.950817 Z M1000.80008,178.746739 C1000.80008,202.575128 975.821819,211.190453 959.813509,211.190453 C946.99971,211.190453 926.180307,206.208329 926.180307,189.337134 C926.180307,169.47048 940.276355,163.508552 955.972558,160.85902 C971.976036,157.882887 989.590299,158.22205 1000.80104,150.609721 L1000.80008,178.746739 Z" id="Shape"></path>
                <path d="M1255.06329,60.5662383 C1231.04165,60.5662383 1215.35801,71.4957967 1203.19258,89.0356556 C1195.82085,69.5158953 1176.92917,60.5662383 1156.74751,60.5662383 C1130.49667,60.5662383 1116.72046,72.1499662 1105.84404,89.0356556 L1104.8768,89.0356556 L1104.8768,65.2072664 L1070.27442,65.2072664 L1070.27442,210.950817 L1071.94415,238.474249 L1106.78326,236.331046 L1106.78326,134.722195 C1106.78326,106.257609 1124.07769,90.3613876 1142.97034,90.3613876 C1165.05943,90.3613876 1172.10842,102.93265 1172.10842,126.451831 L1172.10842,236.336844 L1208.6047,236.336844 L1208.6047,136.046961 C1208.6047,107.242246 1219.1719,90.3642864 1243.83805,90.3642864 C1272.33066,90.3642864 1273.92888,109.229877 1273.92888,136.383225 L1273.92888,236.334912 L1310.4387,236.334912 L1310.4387,118.175669 C1310.45125,76.4605276 1289.97294,60.5730022 1255.08841,60.5730022 M1425.09518,90.3565562 C1394.35984,90.3565562 1378.66267,114.525075 1378.66267,150.933424 C1378.66267,185.350275 1395.63533,211.18079 1425.09518,211.18079 C1458.39501,211.18079 1470.8967,180.723741 1470.8967,150.933424 C1470.8967,119.825104 1455.17345,90.3565562 1425.09518,90.3565562 M1343.44284,65.2063001 L1378.03169,65.2063001 L1378.03169,88.3756885 L1378.6762,88.3756885 C1388.92067,68.8539956 1408.76703,60.5662383 1429.90241,60.5662383 C1482.09489,60.5662383 1507.39202,101.624312 1507.39202,151.606919 C1507.39202,197.601701 1484.98116,240.963378 1435.99768,240.963378 C1414.86231,240.963378 1392.11711,233.023481 1380.59619,214.168519 L1379.95169,214.168519 L1379.95169,299.54585 L1343.44284,299.54585 L1343.44284,65.2207943 L1343.44284,65.2063001 Z" id="Shape"></path>
            </g>
        </g>
    </g>
</svg>