<?xml version="1.0" encoding="UTF-8"?>
<svg width="1297px" height="300px" viewBox="0 0 1297 300" version="1.1" xmlns="http://www.w3.org/2000/svg" xmlns:xlink="http://www.w3.org/1999/xlink">
    <!-- Generator: Sketch 58 (84663) - https://sketch.com -->
    <title>Combined Shape</title>
    <desc>Created with Sketch.</desc>
    <g id="Page-1" stroke="none" stroke-width="1" fill="none" fill-rule="evenodd">
        <path d="M16.557697,0 L283.443467,0 C292.480895,0 299.827376,7.24020088 299.997002,16.2392342 L300,16.5575685 L300,283.441267 C300,292.479776 292.757469,299.82735 283.761684,299.997002 L283.443467,300 L204.877462,300 L204.877462,184.971261 L244.615212,184.971261 L250.565376,140.14252 L204.877462,140.14252 L204.877462,111.522201 C204.877462,98.5432463 208.586825,89.6985167 227.742178,89.6985167 L252.173913,89.6881437 L252.173913,49.5929583 C247.948537,49.0466458 233.445605,47.826087 216.572571,47.826087 C181.347267,47.826087 157.231071,68.7173521 157.231071,107.082548 L157.231071,140.14252 L117.391304,140.14252 L117.391304,184.971261 L157.231071,184.971261 L157.231071,300 L16.557697,300 C7.51681739,300 0.17257097,292.756388 0.00299694287,283.759523 L0,283.441267 L0,16.5575685 C0,7.51790958 7.24025707,0.172596387 16.2393602,0.00299738629 L16.557697,0 L283.443467,0 Z M737.766402,121.829746 C759.843709,125.511364 773.49523,139.604719 776.73894,161.876557 C777.855638,169.571186 777.812537,177.429278 777.949676,185.26279 L777.974431,186.568115 L778.044282,194.265255 C778.041163,194.367471 778.0425,194.994039 778.043518,195.343734 L778.044282,195.57919 C777.869504,195.619563 773.986119,195.671213 773.451311,195.678146 L773.390453,195.678927 C772.901496,195.678927 772.399441,195.674591 771.906118,195.674591 L740.720338,195.678385 L703.478252,195.678927 C703.089705,209.017746 711.205527,214.659424 721.809795,216.402664 C728.340871,216.957725 734.810828,216.931707 741.215299,216.289917 C748.846529,215.314223 756.071751,213.570984 761.127223,212.157312 C761.39353,212.079256 761.655472,211.996864 761.921779,211.910136 C763.353726,211.43313 764.794405,210.990816 766.252546,210.613547 C766.27874,210.609211 766.313666,210.609211 766.33986,210.604875 C767.498566,210.237555 768.181608,209.996996 768.257957,209.969966 L768.26513,209.967421 L768.452855,210.600538 C770.203498,217.057463 772.063283,223.501379 773.608738,230.014677 L773.632749,230.013593 L773.656761,230.006004 L774.997028,234.88881 C741.603845,251.55366 703.72273,241.71433 695.982357,239.416029 C695.986723,239.411693 695.982357,239.411693 695.991089,239.40302 L695.879763,239.388385 L695.768438,239.377001 C678.803357,233.262653 669.002377,220.526597 666.300013,200.531378 C664.510079,187.24026 664.793849,173.194605 667.007255,159.95986 C670.652609,138.143346 688.43844,123.646704 711.869113,121.426459 C720.430236,120.615549 729.340615,120.429083 737.766402,121.829746 Z M648.855325,123.26631 L649.710381,123.503603 L649.738238,123.51203 C649.870684,123.5511 650.465646,123.724218 651.321322,123.993618 C652.412745,124.331858 653.504168,124.683108 654.591225,125.077722 C657.181536,126.019344 658.884849,126.705304 659.923668,127.502707 L660.074535,127.623199 C660.812734,128.084436 661.381357,128.560008 661.665602,129.023852 L661.74223,129.162627 L660.742486,132.974337 C660.532933,133.741883 660.270991,134.600494 659.956662,135.593533 C657.96154,141.937711 655.817985,148.238525 653.722452,154.608722 C647.693431,153.130004 642.314898,151.482165 636.805394,150.558508 C632.758396,149.877691 628.506212,149.682552 624.419923,150.068493 C612.322589,151.204634 604.717553,157.835016 602.988738,170.215487 C602.067577,176.776486 601.871121,183.636697 602.512878,190.284424 C609.307637,229.75956 652.142769,210.183932 653.844916,209.38919 L653.89708,209.364659 L655.608432,215.700165 C657.218887,220.7651 658.877635,225.987645 660.382308,231.285569 L660.938942,233.275663 L660.934577,233.26699 L661.943052,236.662404 L659.808228,237.408268 C654.198313,239.407356 646.383723,242.213018 640.935339,243.058619 C627.977963,245.066381 614.955102,244.879915 602.246571,241.180951 C582.771216,235.508917 570.791755,222.824898 566.430428,203.193938 C563.518511,190.084949 563.400637,176.854541 565.937105,163.78458 C570.769927,138.945584 588.193406,123.898217 613.863679,121.205302 C625.746881,119.96149 637.447249,120.174674 648.855325,123.26631 Z M828.987549,59.1771927 L828.987549,136.066203 C839.482674,123.529621 851.898704,119.21055 866.248736,120.732632 C888.256193,123.061288 902.462156,134.765278 907.936735,155.96602 C912.874333,175.050592 913.044595,194.399684 906.487325,213.271771 C896.271604,242.690024 867.073852,249.116594 844.931059,241.232988 C839.306799,239.234209 834.470068,235.094331 829.536201,231.542865 L828.987549,231.150818 L828.987549,241.71433 L790.984195,241.71433 L790.984195,63.7477762 L828.987549,59.1771927 Z M1000.93035,122.931196 C1021.84639,128.490482 1034.57675,141.90302 1039.20875,162.752513 C1042.16869,176.034958 1042.16869,189.373777 1039.10834,202.647549 C1033.52898,226.849093 1014.41598,242.624978 989.225932,243.925903 C988.968356,243.943249 988.706415,243.943249 988.448839,243.947585 C988.422644,243.951921 988.405182,243.960594 988.370256,243.960594 C983.297321,244.554683 977.220277,244.194761 972.444209,243.691736 C971.137776,243.589288 969.888165,243.45364 968.803588,243.276076 L968.34919,243.197385 L968.322996,243.197385 C968.013031,243.16703 967.68997,243.141011 967.37564,243.114993 C966.432651,242.971891 965.494027,242.798434 964.555403,242.611969 L964.445248,242.59039 C964.41612,242.584771 964.395234,242.580816 964.384547,242.578804 L964.376409,242.577277 C964.035885,242.499222 963.677899,242.438512 963.337375,242.35612 C938.941884,236.770815 923.225391,218.787693 921.819638,193.541074 C921.204075,182.504892 921.666838,171.061088 923.993752,160.298101 C928.254669,140.57174 941.478352,128.169587 961.211282,122.952878 C974.386943,119.466398 987.724134,119.423034 1000.93035,122.931196 Z M1130.54777,122.91385 C1151.4638,128.4688 1164.18543,141.881338 1168.83489,162.730831 C1171.7861,176.013276 1171.7861,189.356431 1168.72575,202.630204 C1163.1464,226.823074 1144.02903,242.603296 1118.83462,243.908557 C1118.58577,243.921566 1118.33256,243.921566 1118.06625,243.925903 C1118.03133,243.934576 1118.01386,243.934576 1117.98767,243.943249 C1112.92347,244.537338 1106.83769,244.177415 1102.05289,243.674391 C1100.56856,243.557307 1099.15844,243.392524 1097.9666,243.175703 C1097.95787,243.175703 1097.94914,243.175703 1097.94041,243.16703 C1097.62608,243.149684 1097.30738,243.119329 1096.99305,243.088974 C1096.05007,242.950209 1095.10271,242.776752 1094.16409,242.590286 C1094.07677,242.572941 1094.02019,242.561146 1094.00105,242.557122 L1093.99382,242.555595 C1093.6533,242.47754 1093.29531,242.41683 1092.94606,242.334438 C1068.5593,236.753469 1052.83407,218.766011 1051.43705,193.519392 C1050.82149,182.478874 1051.28425,171.039406 1053.61117,160.272082 C1057.87208,140.550058 1071.09577,128.152242 1090.81997,122.931196 C1103.99563,119.444716 1117.34155,119.401352 1130.54777,122.91385 Z M496.313039,122.345779 C503.018743,124.310176 506.249355,126.461039 514.810478,135.107854 L514.867135,135.163811 C514.977819,135.273487 515.2427,135.537604 515.590795,135.895728 L515.709811,136.018502 L515.880073,136.191959 C516.183925,136.511119 516.526894,136.87746 516.879921,137.262117 L517.146124,137.553594 L517.15049,137.553594 L517.15049,122.44118 L552.617377,122.44118 L552.617377,241.831413 L517.15049,241.831413 L517.15049,226.54988 C516.504367,227.798768 515.976118,228.440558 515.976118,228.440558 C510.112993,235.764766 503.79147,241.02484 495.287101,242.785425 C467.569318,248.518168 441.562887,236.887898 435.376701,202.157534 C432.512806,186.121464 432.582657,169.820873 437.467868,153.984278 C445.417794,128.212951 470.524892,114.800414 496.313039,122.345779 Z M1220.87395,59.2856031 L1220.87395,178.055729 L1255.8868,123.685732 L1296.18215,123.685732 L1258.20062,182.700031 L1296.18215,241.909469 L1255.8868,241.909469 L1220.87395,187.366016 L1220.87395,241.831413 L1182.84877,241.831413 L1182.84877,63.860523 L1220.87395,59.2856031 Z M433.393129,61.5428969 L433.438333,61.5535492 L433.460162,61.5535492 L433.460162,61.5578856 L433.464527,61.5578856 L433.464527,89.3803371 L433.473259,89.5104296 L433.464527,90.668253 C433.464527,90.668253 405.857611,87.5146622 403.382316,103.886558 L403.315054,104.388676 L403.315054,122.306751 L433.564938,122.306751 L430.434737,154.17508 L402.625275,154.17508 L402.625275,240.860056 L366.267786,240.860056 L366.267786,154.17508 L341.30039,154.17508 L341.30039,122.306751 L364.809645,122.306751 C364.788073,119.34554 364.672703,96.0352307 366.330077,90.4649701 L366.390026,90.273639 L366.459877,90.0004448 C366.472974,89.9917719 366.472974,89.9787627 366.472974,89.9700898 C377.299673,48.7610757 431.37236,61.0696016 433.393129,61.5428969 Z M959.600342,170.419298 C958.893099,178.888321 958.958585,187.5308 959.770604,195.995486 C960.896952,207.582392 968.903633,214.360212 980.577495,214.889255 C991.434972,215.392279 999.576989,209.364659 1002.10036,198.22874 C1002.27935,197.456858 1002.41032,196.68064 1002.53693,195.895748 C1002.77268,193.627802 1004.54951,175.904866 1002.15711,165.935443 C999.520235,156.02673 992.129118,150.185576 981.751866,149.986101 C969.126283,149.738925 960.709228,157.050125 959.600342,170.419298 Z M850.012725,149.977428 C841.958022,150.24195 835.885344,153.685065 832.405887,160.007561 C828.306501,168.255426 828.970086,185.709505 829.585649,194.057107 C829.585649,194.052771 829.594381,194.052771 829.603112,194.048434 C830.393302,199.442937 833.113129,208.033379 842.110821,213.163361 C844.376616,214.043653 846.899986,214.611724 849.689664,214.828545 C860.85274,215.691492 870.256442,209.542452 871.928502,197.808108 C873.395375,187.652219 873.325524,176.941269 871.814994,166.776708 C870.112374,155.241839 861.455205,149.604497 850.012725,149.977428 Z M473.519757,164.552126 C473.240353,165.974471 469.939889,183.52395 472.760127,198.293787 C475.113235,208.675169 482.320994,214.468622 493.213397,214.889255 C503.843858,215.305551 512.837185,208.675169 514.024654,197.634651 C515.111711,187.561155 515.085517,177.197118 513.980997,167.127958 C512.80226,156.364971 504.738825,150.215931 494.278626,149.981765 C483.626336,149.734589 476.366189,154.639077 473.519757,164.552126 Z M1089.20466,170.401952 C1088.49742,178.870975 1088.57163,187.513454 1089.38365,195.973804 C1090.51,207.556373 1098.51668,214.329857 1110.19054,214.871909 C1121.04802,215.36626 1129.18131,209.347314 1131.71341,198.211395 C1131.8924,197.435176 1132.02337,196.663294 1132.14998,195.874066 C1132.39009,193.610456 1134.15383,175.878847 1131.77016,165.913761 C1129.13328,156.005048 1121.73343,150.163894 1111.37365,149.964419 C1098.73933,149.717243 1090.33101,157.028442 1089.20466,170.401952 Z M711.22299,150.042475 C704.200881,154.484174 703.014966,161.684446 702.75119,169.493092 L702.727352,170.289206 L743.791057,170.289206 L743.809305,169.521717 C743.978325,161.227637 743.154513,153.62319 735.378368,149.357321 C727.45027,144.994885 718.932803,145.177015 711.22299,150.042475 Z" id="Combined-Shape" fill="#FFFFFF"></path>
    </g>
</svg>