<?xml version="1.0" encoding="UTF-8"?>
<svg width="1196px" height="300px" viewBox="0 0 1196 300" version="1.1" xmlns="http://www.w3.org/2000/svg" xmlns:xlink="http://www.w3.org/1999/xlink">
    <!-- Generator: Sketch 58 (84663) - https://sketch.com -->
    <title>Group 3</title>
    <desc>Created with Sketch.</desc>
    <g id="Page-1" stroke="none" stroke-width="1" fill="none" fill-rule="evenodd">
        <g id="Group-3" fill-rule="nonzero">
            <g id="github-2" transform="translate(364.000000, 38.000000)" fill="#F1F1F1">
                <path d="M160.761388,96.4843432 L90.9305598,96.4843432 C89.128586,96.4852948 87.668036,97.9410884 87.6670813,99.737194 L87.6670813,133.767947 C87.6680311,135.564893 89.1277466,137.022169 90.9305598,137.025972 L118.171781,137.025972 L118.171781,179.304409 C118.171781,179.304409 112.054922,181.384439 95.1440118,181.384439 C75.1928411,181.384439 47.3217651,174.116405 47.3217651,113.029729 C47.3217651,51.9309804 76.3435374,43.8902643 103.58995,43.8902643 C127.174898,43.8902643 137.335633,48.0313538 143.800297,50.0234231 C145.831752,50.6443278 147.710934,48.6298369 147.710934,46.830938 L155.501062,13.9523086 C155.501062,13.1123624 155.21555,12.0982181 154.253464,11.4100487 C151.628493,9.54388507 135.610454,0.609756098 95.1440118,0.609756098 C48.5261029,0.609756098 0.707317073,20.3803971 0.707317073,115.411589 C0.707317073,210.449679 55.4562364,224.609756 101.591372,224.609756 C139.791029,224.609756 162.964149,208.338603 162.964149,208.338603 C163.919313,207.810834 164.023136,206.481063 164.023136,205.870507 L164.023136,99.7354693 C164.023136,97.9417445 162.562703,96.4843432 160.761388,96.4843432 M520.64221,11.9964587 C520.649464,11.1338108 520.311648,10.3037968 519.703394,9.69007947 C519.095141,9.07636211 518.2666,8.72954134 517.401108,8.72636052 L478.080171,8.72636052 C477.213264,8.7295566 476.383138,9.07588078 475.772414,9.68914444 C475.16169,10.3024081 474.820396,11.1323749 474.823614,11.9964587 L474.833996,87.7347609 L413.546007,87.7347609 L413.546007,11.9964587 C413.552454,11.1334912 413.213864,10.3034886 412.605062,9.68987283 C411.99626,9.07625701 411.167368,8.72954645 410.301563,8.72636052 L370.984087,8.72636052 C369.18143,8.73586202 367.727559,10.199668 367.736143,11.9964587 L367.736143,217.074387 C367.736143,218.88191 369.194884,220.353109 370.984087,220.353109 L410.301563,220.353109 C412.099418,220.353109 413.546007,218.880185 413.546007,217.074387 L413.546007,129.354349 L474.833996,129.354349 L474.726713,217.074387 C474.726713,218.88191 476.187146,220.353109 477.985001,220.353109 L517.397647,220.353109 C519.198963,220.353109 520.638631,218.880185 520.64221,217.074387 L520.64221,11.9964587 M234.95794,38.9092287 C234.95794,24.7957195 223.60671,13.3917696 209.602822,13.3917696 C195.612778,13.3917696 184.252896,24.7957195 184.252896,38.9092287 C184.252896,53.0054905 195.612778,64.4387609 209.602822,64.4387609 C223.60671,64.4387609 234.95794,53.0054905 234.95794,38.9092287 M232.1461,173.814576 L232.1461,79.1507532 C232.150882,77.3537941 230.695803,75.8918812 228.892991,75.8823798 L189.698372,75.8823798 C187.900517,75.8823798 186.291272,77.731296 186.291272,79.530195 L186.291272,215.153032 C186.291272,219.14062 188.783006,220.323789 192.008416,220.323789 L227.321815,220.323789 C231.196114,220.323789 232.1461,218.42658 232.1461,215.090942 L232.1461,173.814576 M670.069958,76.1911074 L631.051836,76.1911074 C629.262633,76.1911074 627.805661,77.6605819 627.805661,79.4698292 L627.805661,180.025348 C627.805661,180.025348 617.892369,187.255438 603.824458,187.255438 C589.756546,187.255438 586.024137,180.89289 586.024137,167.162272 L586.024137,79.4698292 C586.024137,77.6605819 584.568896,76.1911074 582.779693,76.1911074 L543.178436,76.1911074 C541.392694,76.1911074 539.92707,77.6605819 539.92707,79.4698292 L539.92707,173.800778 C539.92707,214.58387 562.731621,224.561464 594.104967,224.561464 C619.840766,224.561464 640.589637,210.391038 640.589637,210.391038 C640.589637,210.391038 641.577679,217.857417 642.024114,218.743931 C642.47228,219.626996 643.63682,220.518684 644.894799,220.518684 L670.088992,220.408301 C671.874734,220.408301 673.340358,218.935377 673.340358,217.134753 L673.326515,79.471554 C673.326515,77.6605819 671.867813,76.1911074 670.069958,76.1911074 M761.321041,187.131258 C747.787814,186.720771 738.608199,180.59796 738.608199,180.59796 L738.608199,115.656501 C738.608199,115.656501 747.663227,110.12355 758.773935,109.133552 C772.824543,107.879669 786.362961,112.110445 786.362961,145.516844 C786.364691,180.746287 780.254753,187.698695 761.321041,187.131258 L761.321041,187.131258 Z M776.710955,71.5860641 C754.550101,71.5860641 739.476845,81.4412017 739.476845,81.4412017 L739.476845,11.9981834 C739.476845,10.1872113 738.025064,8.72636052 736.2324,8.72636052 L696.80245,8.72636052 C695.936158,8.7304667 695.107011,9.07754064 694.497535,9.6911787 C693.888058,10.3048168 693.548214,11.1347153 693.552768,11.9981834 L693.552768,217.074387 C693.552768,218.88191 695.009786,220.353109 696.807641,220.353109 L724.166527,220.353109 C725.396821,220.353109 726.32949,219.720131 727.018178,218.612851 C727.698213,217.510746 728.679333,209.157852 728.679333,209.157852 C728.679333,209.157852 744.802925,224.387265 775.324928,224.387265 C811.157438,224.387265 831.707317,206.270645 831.707317,143.059096 C831.707317,79.8458215 798.887382,71.5860641 776.710955,71.5860641 M345.151387,75.8651324 L315.657224,75.8651324 L315.612234,37.0258177 C315.612234,35.5563432 314.852602,34.821606 313.148187,34.821606 L272.955143,34.821606 C271.392619,34.821606 270.553389,35.5080506 270.553389,37.0033961 L270.553389,77.1397118 C270.553389,77.1397118 250.411878,81.9844933 249.050076,82.377733 C247.65466,82.7808385 246.695042,84.0548448 246.695042,85.5029534 L246.695042,110.723758 C246.695042,112.53818 248.148553,113.997306 249.946408,113.997306 L270.553389,113.997306 L270.553389,174.670045 C270.553389,219.737379 302.267618,224.164774 323.668839,224.164774 C333.447162,224.164774 345.144466,221.036105 347.075559,220.322064 C348.243559,219.89433 348.921864,218.68874 348.921864,217.38139 L348.954741,189.637298 C348.954741,187.826326 347.421633,186.365475 345.694723,186.365475 C343.976466,186.365475 339.579594,187.062268 335.052946,187.062268 C320.566285,187.062268 315.657224,180.347874 315.657224,171.656932 L315.655493,113.995581 L345.151387,113.995581 C346.949242,113.995581 348.404484,112.53473 348.404484,110.722033 L348.404484,79.1300564 C348.408623,78.2667695 348.067936,77.4373258 347.457612,76.8247831 C346.847289,76.2122404 346.017503,75.8669555 345.151387,75.8651324" id="Shape"></path>
            </g>
            <g id="githublogo" fill="#FFFFFF">
                <path d="M287.675561,76.5476636 C273.91518,52.9990654 255.250101,34.3556075 231.675412,20.6130841 C208.097215,6.86985981 182.356853,-2.84217094e-14 154.436079,-2.84217094e-14 C126.518814,-2.84217094e-14 100.77003,6.87196262 77.1967451,20.6130841 C53.6199513,34.3549065 34.9555743,52.9990654 21.195193,76.5476636 C7.43691692,100.095561 0.557428004,125.810047 0.557428004,153.690421 C0.557428004,187.181075 10.3401553,217.296729 29.9105222,244.045093 C49.4787839,270.795561 74.758081,289.305841 105.746308,299.578037 C109.353426,300.246729 112.023675,299.776402 113.759864,298.178972 C115.496754,296.579439 116.364146,294.576168 116.364146,292.17757 C116.364146,291.777336 116.329759,288.176636 116.263091,281.371262 C116.194317,274.565888 116.162036,268.628972 116.162036,263.563318 L111.553487,264.359579 C108.61516,264.897196 104.90839,265.125 100.433179,265.060514 C95.9600721,264.998131 91.3164347,264.529907 86.5085821,263.659346 C81.6986242,262.796495 77.224816,260.795327 73.0836486,257.660047 C68.9445865,254.524766 66.0062595,250.420794 64.2693692,245.354439 L62.2658049,240.749299 C60.9303293,237.683411 58.8278149,234.27757 55.9554546,230.544393 C53.0830943,226.80771 50.1784524,224.274533 47.2401253,222.940654 L45.8372794,221.937617 C44.9025167,221.271028 44.0351242,220.467056 43.2329967,219.534112 C42.431571,218.601168 41.8315544,217.667523 41.4308415,216.732477 C41.0294269,215.796729 41.3620677,215.029206 42.4322728,214.427103 C43.5024779,213.825 45.4365666,213.53271 48.2429602,213.53271 L52.2486852,214.130607 C54.9203382,214.665421 58.2249912,216.26285 62.1668548,218.93271 C66.1066131,221.600467 69.3452994,225.068692 71.8836154,229.335981 C74.9573848,234.807477 78.6606453,238.976636 83.0039236,241.845561 C87.343693,244.714486 91.7192528,246.146495 96.1263925,246.146495 C100.533532,246.146495 104.339954,245.81285 107.54706,245.149065 C110.750657,244.481776 113.756355,243.478738 116.562748,242.145561 C117.764887,233.203037 121.03796,226.333178 126.379161,221.531075 C118.766318,220.732009 111.921918,219.528505 105.842451,217.928271 C99.7664934,216.325935 93.4877229,213.725467 87.0103504,210.11986 C80.529469,206.519159 75.1531797,202.047897 70.8800788,196.713785 C66.6062761,191.376869 63.0988105,184.370327 60.3625943,175.700467 C57.6249746,167.027103 56.2558138,157.021963 56.2558138,145.682243 C56.2558138,129.536215 61.5331531,115.796495 72.0857262,104.455374 C67.1424313,92.3165888 67.6091109,78.7086449 73.4871686,63.6329439 C77.3609602,62.4308411 83.1056808,63.3329439 90.7185233,66.3336449 C98.3327695,69.3357477 103.907661,71.9074766 107.448812,74.0397196 C110.989962,76.1712617 113.827234,77.9775701 115.964837,79.4425234 C128.389743,75.975 141.211853,74.2408879 154.434675,74.2408879 C167.657498,74.2408879 180.482415,75.975 192.908022,79.4425234 L200.521567,74.6418224 C205.728027,71.4385514 211.876267,68.5030374 218.951551,65.8345794 C226.031046,63.1675234 231.444529,62.4329439 235.186387,63.6350467 C241.194975,78.7114486 241.730428,92.3186916 236.78573,104.457477 C247.337601,115.798598 252.617046,129.541822 252.617046,145.684346 C252.617046,157.024065 251.242972,167.060748 248.509563,175.800701 C245.772645,184.542056 242.235003,191.541589 237.895234,196.814019 C233.550552,202.085748 228.139876,206.521963 221.662503,210.121963 C215.183727,213.724766 208.902852,216.325234 202.826894,217.92757 C196.748129,219.529907 189.903728,220.734112 182.290886,221.534579 C189.234236,227.535981 192.706613,237.009112 192.706613,249.949766 L192.706613,292.171963 C192.706613,294.570561 193.541724,296.573131 195.213349,298.173364 C196.882869,299.770794 199.519434,300.241121 203.126551,299.571729 C234.118989,289.300935 259.398286,270.789953 278.965846,244.039486 C298.531301,217.291121 308.317537,187.175467 308.317537,153.684813 C308.310519,125.807944 301.427521,100.095561 287.675561,76.5476636 Z" id="Path"></path>
            </g>
        </g>
    </g>
</svg>