<?xml version="1.0" encoding="UTF-8"?>
<svg width="1344px" height="300px" viewBox="0 0 1344 300" version="1.1" xmlns="http://www.w3.org/2000/svg" xmlns:xlink="http://www.w3.org/1999/xlink">
    <!-- Generator: Sketch 58 (84663) - https://sketch.com -->
    <title>google-play</title>
    <desc>Created with Sketch.</desc>
    <defs>
        <path d="M197.000698,107.963057 L134.312032,71.7268078 L13.3993514,1.82717025 C6.68347986,-2.05374064 9.09494702e-13,0.297507602 9.09494702e-13,8.40526017 L9.09494702e-13,293.187367 C9.09494702e-13,299.268181 4.78316895,301.884283 10.6136683,298.516863 C16.4441677,295.138633 134.317431,227.006485 134.317431,227.006485 L197.000698,190.775641 L257.25459,155.950141 C264.32677,151.863834 263.646545,146.258675 257.68108,143.037194 C251.715616,139.821119 197.000698,107.963057 197.000698,107.963057 Z" id="path-1"></path>
        <path d="M197.000698,107.963057 L134.312032,71.7268078 L13.3993514,1.82717025 C6.68347986,-2.05374064 9.09494702e-13,0.297507602 9.09494702e-13,8.40526017 L9.09494702e-13,293.187367 C9.09494702e-13,299.268181 4.78316895,301.884283 10.6136683,298.516863 C16.4441677,295.138633 134.317431,227.006485 134.317431,227.006485 L197.000698,190.775641 L257.25459,155.950141 C264.32677,151.863834 263.646545,146.258675 257.68108,143.037194 C251.715616,139.821119 197.000698,107.963057 197.000698,107.963057 Z" id="path-3"></path>
        <path d="M197.000698,107.963057 L134.312032,71.7268078 L13.3993514,1.82717025 C6.68347986,-2.05374064 9.09494702e-13,0.297507602 9.09494702e-13,8.40526017 L9.09494702e-13,293.187367 C9.09494702e-13,299.268181 4.78316895,301.884283 10.6136683,298.516863 C16.4441677,295.138633 134.317431,227.006485 134.317431,227.006485 L197.000698,190.775641 L257.25459,155.950141 C264.32677,151.863834 263.646545,146.258675 257.68108,143.037194 C251.715616,139.821119 197.000698,107.963057 197.000698,107.963057 Z" id="path-5"></path>
        <path d="M197.000698,107.963057 L134.312032,71.7268078 L13.3993514,1.82717025 C6.68347986,-2.05374064 9.09494702e-13,0.297507602 9.09494702e-13,8.40526017 L9.09494702e-13,293.187367 C9.09494702e-13,299.268181 4.78316895,301.884283 10.6136683,298.516863 C16.4441677,295.138633 134.317431,227.006485 134.317431,227.006485 L197.000698,190.775641 L257.25459,155.950141 C264.32677,151.863834 263.646545,146.258675 257.68108,143.037194 C251.715616,139.821119 197.000698,107.963057 197.000698,107.963057 Z" id="path-7"></path>
    </defs>
    <g id="Page-1" stroke="none" stroke-width="1" fill="none" fill-rule="evenodd">
        <g id="google-play" transform="translate(0.000000, 0.000000)">
            <g id="Clipped" transform="translate(0.000000, 0.000000)">
                <mask id="mask-2" fill="white">
                    <use xlink:href="#path-1"></use>
                </mask>
                <g id="a"></g>
                <polygon id="Path" fill="#FFFFFF" fill-rule="nonzero" mask="url(#mask-2)" points="9.09494702e-13 -4.56273764 9.09494702e-13 303.422053 155.13308 149.435057"></polygon>
            </g>
            <g id="Clipped" transform="translate(0.000000, 0.000000)">
                <mask id="mask-4" fill="white">
                    <use xlink:href="#path-3"></use>
                </mask>
                <g id="d"></g>
                <polygon id="Path" fill="#FFFFFF" fill-rule="nonzero" mask="url(#mask-4)" points="197.338403 108.062636 134.542274 71.8631179 9.09494702e-13 -5.70342205 9.09494702e-13 -4.58568632 155.557238 149.429658"></polygon>
            </g>
            <g id="Clipped" transform="translate(0.000000, 0.000000)">
                <mask id="mask-6" fill="white">
                    <use xlink:href="#path-5"></use>
                </mask>
                <g id="g"></g>
                <polygon id="Path" fill="#FFFFFF" fill-rule="nonzero" mask="url(#mask-6)" points="9.09494702e-13 303.444924 9.09494702e-13 304.562738 134.545961 226.990798 197.338403 190.794159 155.561501 149.429658"></polygon>
            </g>
            <g id="Clipped" transform="translate(0.000000, 0.000000)">
                <mask id="mask-8" fill="white">
                    <use xlink:href="#path-7"></use>
                </mask>
                <g id="j"></g>
                <polygon id="Path" fill="#FFFFFF" fill-rule="nonzero" mask="url(#mask-8)" points="197.830318 107.224335 156.273764 148.862033 197.824939 190.494297 269.201521 148.856598"></polygon>
            </g>
            <g id="Group" transform="translate(1013.634660, 53.933487)" fill="#FFFFFF" fill-rule="nonzero">
                <path d="M47.8648243,146.727335 C41.2348371,146.727335 35.1819043,145.503839 29.6998871,143.050698 C24.1819724,140.568219 19.4200638,136.664638 15.8996915,131.737968 L14.7824159,131.737968 C15.52522,137.695596 15.8996915,143.351961 15.8996915,148.68247 L15.8996915,190.64409 L0.478832409,190.64409 L0.478832409,42.871557 L13.0205582,42.871557 L15.1568874,56.8341708 L15.8996915,56.8341708 C19.8654061,51.2515846 24.4818416,47.2183505 29.7489981,44.7344685 C35.0100157,42.2567347 41.0568096,41.0147937 47.8648243,41.0147937 C61.3703537,41.0147937 71.794167,45.6382572 79.1362639,54.879036 C86.472222,64.1259629 90.1555482,77.0925647 90.1555482,93.7788411 C90.1555482,110.538896 86.4231109,123.542387 78.9582365,132.826204 C71.4810842,142.091575 61.1247987,146.727335 47.8648243,146.727335 L47.8648243,146.727335 Z M45.6364119,54.135101 C35.2310153,54.135101 27.7108909,57.0186175 23.0576222,62.7917986 C18.4104922,68.5649797 16.0224691,77.7442763 15.8996915,90.3419846 L15.8996915,93.7849893 C15.8996915,108.116496 18.2877147,118.371732 23.0576222,124.544548 C27.8275296,130.723511 35.4765704,133.809919 46.0047445,133.809919 C54.8078942,133.809919 61.7018531,130.24395 66.6866213,123.112012 C71.6713894,115.980073 74.1637735,106.142917 74.1637735,93.6066909 C74.1637735,80.8921663 71.6775283,71.1287886 66.6866213,64.3350025 C61.7018531,57.52892 54.6789778,54.135101 45.6364119,54.135101 L45.6364119,54.135101 Z M125.859257,144.864424 L110.42612,144.864424 L110.42612,0.0614822272 L125.859257,0.0614822272 L125.859257,144.864424 Z M214.535336,144.864424 L211.465897,130.34847 L210.723093,130.34847 C205.646242,136.742621 200.581668,141.07097 195.529373,143.327368 C190.483216,145.596062 184.166311,146.727335 176.621631,146.727335 C166.51704,146.727335 158.604027,144.120489 152.882594,138.912944 C147.148883,133.705399 144.288166,126.290643 144.288166,116.674823 C144.288166,96.0782764 160.740356,85.2942938 193.626321,84.2859852 L210.913398,83.726497 L210.913398,77.3999758 C210.913398,69.3949898 209.194513,63.4865478 205.744464,59.6746497 C202.306693,55.8566034 196.812398,53.9506543 189.249301,53.9506543 C180.753096,53.9506543 171.16417,56.5575008 160.44569,61.7650454 L155.712616,49.9481614 C160.734217,47.2183505 166.228512,45.078769 172.213918,43.5294168 C178.199323,41.9800647 184.178589,41.2053887 190.200827,41.2053887 C202.343526,41.2053887 211.336981,43.9044584 217.187331,49.302598 C223.037681,54.7007375 225.965925,63.3574351 225.965925,75.2665425 L225.965925,144.87672 L214.541475,144.87672 L214.541475,144.864424 L214.535336,144.864424 Z M179.69107,133.982069 C189.279996,133.982069 196.824676,131.344482 202.318971,126.075455 C207.800988,120.806428 210.545066,113.416264 210.545066,103.91726 L210.545066,94.7072227 L195.111929,95.3466379 C182.846453,95.7831617 174.00647,97.695259 168.585841,101.08293 C163.165213,104.464452 160.464107,109.715034 160.464107,116.846973 C160.464107,122.429559 162.14002,126.684129 165.522542,129.592238 C168.905063,132.524941 173.613582,133.982069 179.69107,133.982069 Z M234.922546,42.871557 L251.454542,42.871557 L273.757083,101.033744 C278.649768,114.307757 281.694651,123.898984 282.867176,129.79513 L283.60998,129.79513 C284.414173,126.622647 286.102364,121.212211 288.668415,113.539229 C291.234466,105.884692 299.650866,82.3247022 313.893061,42.8592606 L330.431195,42.8592606 L286.661002,158.999188 C282.326955,170.471771 277.262381,178.612018 271.455004,183.438373 C265.666043,188.240135 258.551084,190.64409 250.134684,190.64409 C245.420026,190.64409 240.785174,190.115343 236.193294,189.063997 L236.193294,176.699921 C239.954803,177.480194 243.788849,177.85532 247.630022,177.818897 C258.219585,177.818897 265.770404,171.86127 270.294756,159.952162 L275.960939,145.442357 L234.922546,42.871557 L234.922546,42.871557 Z" id="Shape"></path>
            </g>
            <g id="Group" transform="translate(306.731645, 42.687303)" fill="#FFFFFF" fill-rule="nonzero">
                <path d="M466.87929,64.3428991 C471.800357,68.4125027 482.048987,76.9648363 482.048987,93.2309185 C482.048987,109.046878 473.075276,116.55098 464.101566,123.60496 C461.323843,126.37969 458.108828,129.38873 458.108828,134.099604 C458.108828,138.798147 461.317684,141.369396 463.664275,143.293209 L471.363065,149.274293 C480.767908,157.191522 489.310486,164.473646 489.310486,179.235208 C489.310486,199.348915 469.860262,219.672269 433.109315,219.672269 C402.110905,219.672269 387.156775,204.910707 387.156775,189.070083 C387.156775,181.368666 390.993852,170.45473 403.613709,162.969125 C416.855629,154.848416 434.815367,153.781687 444.429617,153.121918 C441.436327,149.274293 438.018064,145.210855 438.018064,138.594666 C438.018064,134.956687 439.095895,132.810896 440.161407,130.245813 C437.802498,130.461625 435.455907,130.671271 433.318723,130.671271 C410.67196,130.671271 397.848855,113.770084 397.848855,97.0908758 C397.848855,87.2436684 402.33879,76.3297315 411.521907,68.4186688 C423.710632,58.3618151 438.239789,56.6476487 449.787975,56.6476487 L493.80042,56.6476487 L480.12121,64.3490652 L466.87929,64.3490652 L466.87929,64.3428991 Z M451.703434,159.343479 C450.003541,159.127666 448.919552,159.127666 446.794685,159.127666 C444.873067,159.127666 433.318723,159.553125 424.338853,162.568331 C419.639512,164.257833 405.960301,169.400332 405.960301,184.599685 C405.960301,199.774374 420.717342,210.700643 443.585829,210.700643 C464.083089,210.700643 474.996895,200.834937 474.996895,187.584061 C474.996895,176.64546 467.950962,170.898686 451.703434,159.343479 Z M457.90558,118.684439 C462.814329,113.757752 463.233143,106.919585 463.233143,103.065794 C463.233143,87.6629609 454.050025,63.7016282 436.318171,63.7016282 C430.756565,63.7016282 424.776145,66.482524 421.345564,70.7679399 C417.724053,75.2630021 416.640063,81.0344399 416.640063,86.6023975 C416.640063,100.932335 424.979393,124.684021 443.370263,124.684021 C448.716303,124.677855 454.462681,122.112772 457.90558,118.684439 L457.90558,118.684439 Z M332.341387,155.915146 C298.423596,155.915146 280.285245,129.425726 280.285245,105.495224 C280.285245,77.501284 303.110619,53.595446 335.556402,53.595446 C366.899717,53.595446 386.540872,78.154887 386.540872,104.009202 C386.534713,129.203748 367.133761,155.915146 332.341387,155.915146 L332.341387,155.915146 Z M358.997679,138.613165 C364.134312,131.774997 365.409232,123.234996 365.409232,114.886142 C365.409232,96.0858071 356.453999,60.2054688 329.994795,60.2054688 C322.935146,60.2692746 316.129091,62.8487794 310.797092,67.4814267 C302.476239,74.9485327 300.973435,84.3517834 300.973435,93.5453879 C300.973435,114.682662 311.431472,149.490112 337.256295,149.490112 C345.570988,149.496271 354.101248,145.445166 358.997679,138.613165 L358.997679,138.613165 Z M216.693236,155.915146 C182.769286,155.915146 164.630935,129.425726 164.630935,105.495224 C164.630935,77.501284 187.468627,53.595446 219.902092,53.595446 C251.263885,53.595446 270.892721,78.154887 270.892721,104.009202 C270.886562,129.203748 251.473292,155.915146 216.693236,155.915146 Z M243.361846,138.613165 C248.486161,131.774997 249.76724,123.234996 249.76724,114.886142 C249.76724,96.0858071 240.799689,60.2054688 214.340486,60.2054688 C207.281038,60.2703519 200.475343,62.8497206 195.142782,67.4814267 C186.821929,74.9485327 185.331443,84.3517834 185.331443,93.5453879 C185.331443,114.682662 195.777162,149.490112 221.608144,149.490112 C229.928997,149.496271 238.459256,145.445166 243.361846,138.613165 Z M148.327977,152.566972 L117.649836,159.651782 C105.202432,161.581761 94.0484243,163.289761 82.2600364,163.289761 C23.0470991,163.289761 0.529676784,119.70184 0.529676784,85.5541663 C0.529676784,43.8962241 32.4827367,5.2473222 87.1934213,5.2473222 C98.7785612,5.2473222 109.92641,6.96148856 120.008746,9.75471647 C136.096138,14.2621107 143.603999,19.8424005 148.327977,23.0672531 L130.516055,40.0362668 L123.014354,41.7442671 L128.378871,33.148771 C121.086576,26.0701272 107.776907,12.9734029 82.4756025,12.9734029 C48.5824473,12.9734029 23.0532582,38.7537251 23.0532582,76.3297315 C23.0532582,116.6928 52.2285945,154.706597 98.9879683,154.706597 C112.72877,154.706597 119.79318,151.919535 126.235527,149.335953 L126.235527,114.775153 L93.8513353,116.483154 L111.00424,107.246387 L156.482535,107.246387 L150.908611,112.604698 C149.393489,113.905738 149.190241,114.331196 148.759109,116.039197 C148.537384,117.975342 148.334136,124.2154 148.334136,126.361191 L148.327977,152.566972 L148.327977,152.566972 Z" id="Shape"></path>
                <path d="M534.690236,146.382408 C527.607349,145.741137 526.116863,144.458595 526.116863,136.060413 L526.116863,14.5087534 L526.233885,13.1213885 C527.102308,5.6111201 529.239493,4.32241229 535.897407,0.450122821 L505.219266,0.450122821 L489.125715,8.18236963 L505.521059,8.18236963 L505.521059,8.28102669 L505.508741,8.20086783 L505.508741,140.78362 C505.508741,145.06287 504.664954,145.722639 499.731569,152.160012 L537.702003,152.160012 L545.640996,147.442971 C541.976372,147.023679 538.330224,146.820198 534.690236,146.382408 Z M621.976043,148.361715 C619.64177,149.650423 617.295179,151.142611 614.954746,152.203174 C607.908813,155.409528 600.67195,156.254279 594.272715,156.254279 C587.473144,156.254279 576.818018,155.816489 565.935008,147.93009 C550.820742,137.262796 544.218259,118.91875 544.218259,102.917808 C544.218259,69.8738604 571.059322,53.6632727 593.010114,53.6632727 C600.67195,53.6632727 608.561671,55.5809193 614.954746,59.6381907 C625.597554,66.6613399 628.375278,75.8302801 629.847286,80.7384687 L579.798989,101.006328 L563.391327,102.28887 C568.706572,129.382564 587.029693,145.143028 607.274433,145.143028 C618.138966,145.143028 626.028686,141.307735 633.271708,137.688255 L621.976043,148.361715 L621.976043,148.361715 Z M601.959188,84.7957402 C605.999513,83.3035522 608.130538,82.0271765 608.130538,79.0428006 C608.130538,70.5151312 598.540925,60.6987541 587.029693,60.6987541 C578.499434,60.6987541 562.529063,67.3149429 562.529063,90.3451996 C562.529063,93.9708464 562.954036,97.8061395 563.169602,101.653765 L601.959188,84.7957402 L601.959188,84.7957402 Z M642.528734,55.1246304 L642.528734,69.1955931 L640.822682,69.1955931 L640.822682,55.1246304 L636.166454,55.1246304 L636.166454,53.6694388 L647.172645,53.6694388 L647.172645,55.1246304 L642.528734,55.1246304 L642.528734,55.1246304 Z M661.695643,69.1955931 L661.695643,54.9889769 L661.615575,54.9889769 L657.285776,69.1955931 L655.949266,69.1955931 L651.582512,54.9889769 L651.52708,54.9889769 L651.52708,69.1955931 L649.975004,69.1955931 L649.975004,53.6632727 L652.635706,53.6632727 L656.595964,66.2173832 L656.645236,66.2173832 L660.543904,53.6632727 L663.24156,53.6632727 L663.24156,69.1955931 L661.695643,69.1955931 L661.695643,69.1955931 Z" id="Shape"></path>
            </g>
        </g>
    </g>
</svg>