<?xml version="1.0" encoding="UTF-8"?>
<svg width="1357px" height="300px" viewBox="0 0 1357 300" version="1.1" xmlns="http://www.w3.org/2000/svg" xmlns:xlink="http://www.w3.org/1999/xlink">
    <!-- Generator: Sketch 58 (84663) - https://sketch.com -->
    <title>Group 2</title>
    <desc>Created with Sketch.</desc>
    <g id="Page-1" stroke="none" stroke-width="1" fill="none" fill-rule="evenodd">
        <g id="Group-2" transform="translate(0.000000, 0.000000)" fill="#FFFFFF" fill-rule="nonzero">
            <g id="Instagram_logo" transform="translate(341.025641, 11.538462)">
                <path d="M52.2588872,1.00995114 C31.4764513,9.70918191 8.62965513,34.2855922 1.4138859,65.134305 C-7.72431923,104.220838 30.3040154,120.7493 33.423118,115.329813 C37.0942718,108.961864 26.6088872,106.808402 24.4505538,86.5285306 C21.6610667,60.3353358 33.8382462,31.067387 49.1636308,18.225464 C52.0123487,15.8395665 51.8768359,19.1603358 51.8768359,25.3027716 C51.8768359,36.2868742 51.2699128,134.891877 51.2699128,155.470851 C51.2699128,183.316749 50.1197846,192.109954 48.0541436,200.7988 C45.9611949,209.604056 42.5964513,215.553672 45.1460667,217.845467 C47.9946564,220.409056 60.1570923,214.311236 67.198118,204.484184 C75.6413231,192.698159 78.5968359,178.5438 79.1274769,163.17239 C79.7683744,144.642646 79.7410667,115.239813 79.7683744,98.4686588 C79.7940154,83.0869922 80.0274769,38.046105 79.498759,10.9691819 C79.3691436,4.32777165 60.9501692,-2.64004886 52.2578615,1.00187421 M790.241555,131.326749 C789.571555,145.803159 786.367068,157.118415 782.390017,165.099697 C774.690658,180.550979 758.714247,185.3488 751.930914,163.137005 C748.234247,151.029313 748.061555,130.808287 750.719247,113.912377 C753.424632,96.7001973 760.978735,83.7010947 773.487453,84.8734024 C785.825273,86.0322486 791.600273,101.930069 790.241555,131.326108 L790.241555,131.326749 Z M582.24735,221.142005 C582.079914,245.195467 578.294273,266.285338 570.176196,272.410723 C558.662222,281.096236 543.186581,274.581108 546.391068,257.029056 C549.226453,241.497133 562.635812,225.635082 582.279914,206.254184 C582.279914,206.254184 582.32094,210.673928 582.247863,221.142005 L582.24735,221.142005 Z M579.102735,131.18662 C578.398632,144.371749 574.980427,157.61739 571.251196,165.101492 C563.553504,180.552646 547.46094,185.383031 540.792094,163.1388 C536.23235,147.940595 537.324401,128.27021 539.580427,115.876095 C542.507991,99.7953255 549.604145,84.876864 562.348632,84.876864 C574.739401,84.876864 580.849401,98.4708383 579.102735,131.187646 L579.102735,131.18662 Z M458.611324,130.984954 C457.85594,144.949313 455.131709,156.622774 450.759914,165.101492 C442.850299,180.446364 427.202094,185.312902 420.300812,163.1388 C415.325683,147.149569 417.019401,125.347761 419.089017,113.570454 C422.160299,96.0935306 429.851068,83.7027614 441.85735,84.876864 C454.190042,86.0817358 460.185427,101.931736 458.611324,130.985979 L458.611324,130.984954 Z M1010.79566,147.295979 C1007.78079,147.295979 1006.40502,150.403543 1005.26681,155.634441 C1001.31886,173.82239 997.169247,177.929184 991.818094,177.929184 C985.83976,177.929184 980.468094,168.923287 979.087196,150.895082 C978.00194,136.719184 978.176299,110.620838 979.564119,84.6599409 C979.847709,79.3259665 978.376299,74.0484024 964.069632,68.8510947 C957.913478,66.6155819 948.96476,63.3239204 944.509247,74.0791716 C931.920273,104.464684 926.994632,128.588287 925.835914,138.388159 C925.775658,138.895338 925.153991,138.998928 925.044632,137.813928 C924.306299,129.964954 922.655401,115.701864 922.450273,85.7350691 C922.410529,79.8882742 921.17194,74.9114793 914.718478,70.8369922 C910.531171,68.193146 897.815658,63.5171255 893.237068,69.0800691 C889.270273,73.6296845 884.676299,85.8734024 879.902837,100.386864 C876.02335,112.18289 873.321299,120.162633 873.321299,120.162633 C873.321299,120.162633 873.372581,88.3345563 873.418735,76.2616075 C873.439247,71.7069922 870.315017,70.1892999 869.37335,69.9141716 C865.133094,68.6835306 856.779119,66.6276332 853.232837,66.6276332 C848.857581,66.6276332 847.786042,69.0732742 847.786042,72.6367358 C847.786042,73.1032742 847.095529,114.541479 847.095529,143.517005 C847.095529,144.775595 847.095529,146.1488 847.10835,147.607518 C844.68835,160.924954 836.840273,179.003159 828.305145,179.003159 C819.75976,179.003159 815.728094,171.44521 815.728094,136.901877 C815.728094,116.750197 816.333094,107.987761 816.630529,93.4128896 C816.803094,85.0178896 817.136427,78.5712229 817.117581,77.1082742 C817.05476,72.6219922 809.29694,70.3608383 805.687324,69.5251973 C802.060658,68.682505 798.909119,68.3560947 796.448094,68.4962229 C792.965017,68.6927614 790.500529,70.9778896 790.500529,74.1208383 C790.500529,75.8059665 790.51976,79.0104537 790.51976,79.0104537 C786.033478,71.9605819 778.817837,67.053787 774.01694,65.6318691 C761.086171,61.7916178 747.592965,65.194305 737.415529,79.4360947 C729.326427,90.751864 724.450555,103.568146 722.531196,121.981736 C721.128119,135.443415 721.586068,149.094441 724.079658,160.639184 C721.066581,173.666108 715.472735,179.003159 709.347478,179.003159 C700.455171,179.003159 694.008504,164.4888 694.757094,139.386877 C695.25094,122.876351 698.554658,111.289684 702.16594,94.5271204 C703.705812,87.3814793 702.454786,83.6403255 699.316837,80.0546845 C696.43876,76.7664793 690.306709,75.0864793 681.491196,77.1527614 C675.212094,78.6259665 666.234401,80.2101973 658.020555,81.4271204 C658.020555,81.4271204 658.516196,79.4496845 658.922991,75.9632742 C661.059273,57.6795665 641.191324,59.1630281 634.85235,65.0028947 C631.068504,68.4894281 628.492863,72.6014793 627.515299,79.9949409 C625.965171,91.7277614 635.534273,97.2617358 635.534273,97.2617358 C632.394658,111.633274 624.69876,130.40739 616.753247,143.980851 C612.497735,151.253159 609.241965,156.642005 605.039273,162.370467 C605.023888,160.23739 605.01235,158.104569 605.004658,155.981492 C604.908504,125.766736 605.310555,101.986736 605.488247,93.4157101 C605.66094,85.0208383 605.997606,78.7450691 605.97876,77.2821204 C605.931324,74.0007101 604.015042,72.7616075 600.029529,71.1926332 C596.505427,69.8049409 592.338632,68.8444281 588.016453,68.5094281 C582.561068,68.0839152 579.274529,70.9773768 579.359914,74.3989152 C579.376581,75.0449409 579.376581,79.0117358 579.376581,79.0117358 C574.890171,71.9617358 567.674529,67.0550691 562.87376,65.6330229 C549.942863,61.7944383 536.449786,65.1972537 526.272222,79.4372486 C518.184914,90.7530178 512.888504,106.631992 511.387863,121.842761 C509.989914,136.019313 510.247991,148.066749 512.153632,158.21521 C510.097606,168.377518 504.18594,179.004441 497.501709,179.004441 C488.956324,179.004441 484.094017,171.446364 484.094017,136.903159 C484.094017,116.751479 484.699017,107.989043 484.996453,93.4157101 C485.169017,85.0208383 485.50235,78.572505 485.483504,77.1112229 C485.420683,72.6249409 477.662735,70.363787 474.053247,69.5263511 C470.276196,68.6530178 467.015299,68.3317358 464.511453,68.5162229 C461.207863,68.7623768 458.885171,71.7208383 458.885171,73.9272486 L458.885171,79.0117358 C454.398888,71.9617358 447.183247,67.0550691 442.38235,65.6330229 C429.451581,61.7944383 416.033632,65.2519973 405.78094,79.4372486 C399.095042,88.6867358 393.68235,98.9412229 390.896581,121.641095 C390.091581,128.200979 389.736068,134.3438 389.782222,140.085467 C387.116068,156.390467 375.340555,175.182902 365.708247,175.182902 C360.071709,175.182902 354.703504,164.25021 354.703504,140.95021 C354.703504,109.913402 356.624529,65.723664 356.949273,61.4646947 C356.949273,61.4646947 369.119529,61.2578999 371.476453,61.230464 C377.546965,61.1637973 383.045171,61.307387 391.130683,60.8937973 C395.186324,60.6870024 399.093247,46.1325152 394.907735,44.3312332 C393.010683,43.5159768 379.602991,42.8016178 374.287863,42.6887973 C369.818632,42.5875152 357.376581,41.666746 357.376581,41.666746 C357.376581,41.666746 358.492606,12.3355922 358.75235,9.23713062 C358.972863,6.65469473 355.631581,5.32507934 353.715683,4.51828447 C349.056837,2.54777165 344.888376,1.60431011 339.947478,0.585720368 C333.121324,-0.82248476 330.024529,0.554951137 329.419529,6.31623319 C328.508632,15.0599511 328.036837,40.6703358 328.036837,40.6703358 C323.027606,40.6703358 305.916324,39.691105 300.905427,39.691105 C296.249914,39.691105 291.225171,59.7128999 297.661581,59.9589255 C305.066965,60.246105 317.972222,60.4939255 326.527735,60.7520024 C326.527735,60.7520024 326.146709,105.669813 326.146709,119.537249 C326.146709,121.012633 326.159529,122.433402 326.162094,123.811992 C321.453504,148.354313 304.86876,161.611492 304.86876,161.611492 C308.430427,145.375338 301.154914,133.182774 288.049786,122.861736 C283.221581,119.058402 273.690042,111.858146 263.025427,103.96789 C263.025427,103.96789 269.202094,97.8801973 274.679658,85.6330178 C278.56094,76.9577614 278.728504,67.0296845 269.202094,64.8404588 C253.461453,61.2205922 240.482863,72.7807101 236.611709,85.1219922 C233.61235,94.682505 235.212094,101.776864 241.087863,109.146351 C241.516837,109.684813 241.981709,110.235069 242.461965,110.788787 C238.90876,117.637377 234.027606,126.85789 229.893376,134.008287 C218.418632,153.860851 209.750299,169.5638 203.199401,169.5638 C197.962735,169.5638 198.032863,153.621236 198.032863,138.694569 C198.032863,125.826479 198.983119,106.480197 199.741965,86.4499409 C199.993119,79.8255819 196.68094,76.051864 191.128247,72.633787 C187.754529,70.5572486 180.554145,66.4742999 176.384017,66.4742999 C170.142222,66.4742999 152.134017,67.3236588 135.118504,116.543274 C132.974145,122.746992 128.761453,134.050979 128.761453,134.050979 L129.124017,74.8623768 C129.124017,73.4746845 128.384914,72.1330178 126.692606,71.2151973 C123.825299,69.6582742 116.167094,66.4742999 109.357478,66.4742999 C106.112991,66.4742999 104.493888,67.9834024 104.493888,70.9913511 L103.899914,163.59239 C103.899914,170.628287 104.083376,178.836364 104.779017,182.426364 C105.472094,186.020851 106.594914,188.944954 107.985555,190.684697 C109.374145,192.421108 110.980427,193.745723 113.62876,194.29239 C116.093632,194.799825 129.590683,196.533031 130.292222,191.375082 C131.132735,185.193672 131.164914,178.507646 138.252222,153.572005 C149.285683,114.750454 163.671324,95.808787 170.434017,89.081864 C171.616453,87.9060947 172.966581,87.8359665 172.901581,89.7603255 C172.612863,98.2716075 171.597606,119.5393 170.914145,137.607646 C169.082222,185.960723 177.878504,194.923031 190.448888,194.923031 C200.065812,194.923031 213.622222,185.367518 228.154401,161.179184 C237.214273,146.105338 246.010812,131.325082 252.33094,120.672377 C256.735299,124.749556 261.677863,129.137774 266.617094,133.825595 C278.095171,144.719569 281.86376,155.071108 279.363376,164.891364 C277.45094,172.398672 270.248888,180.135467 257.430812,172.615595 C253.694786,170.421749 252.100171,168.726749 248.343632,166.253415 C246.325299,164.924697 243.24376,164.527518 241.396324,165.919441 C236.597222,169.537902 233.852478,174.140338 232.285299,179.838415 C230.760812,185.382902 236.313504,188.3138 242.069658,190.87739 C247.02594,193.0838 257.678632,195.083159 264.472222,195.310851 C290.94235,196.196108 312.146837,182.53021 326.907991,147.279056 C329.550299,177.722774 340.79594,194.95021 360.334145,194.95021 C373.396581,194.95021 386.493119,178.065851 392.220299,161.455851 C393.864401,168.22662 396.298119,174.114441 399.441068,179.093415 C414.496324,202.947005 443.702606,197.812902 458.373376,177.55739 C462.909273,171.298543 463.599658,169.049441 463.599658,169.049441 C465.739401,188.175595 481.141581,194.858159 489.960427,194.858159 C499.837222,194.858159 510.035171,190.188928 517.182478,174.098031 C518.020042,175.844313 518.934273,177.512005 519.932478,179.092902 C534.987606,202.946492 564.194017,197.81239 578.864658,177.556877 C579.556837,176.606749 580.156709,175.744825 580.681453,174.971236 L581.112094,187.534184 C581.112094,187.534184 572.742735,195.211749 567.605299,199.92162 C544.994273,220.666364 527.801068,236.40521 526.536324,254.733287 C524.912735,278.103159 543.866324,286.788672 558.205427,287.926877 C573.433247,289.135338 586.473504,280.723415 594.489017,268.950979 C601.538888,258.589056 606.153504,236.287261 605.815042,214.260723 C605.680042,205.440338 605.457863,194.22521 605.283504,182.203672 C613.230683,172.974697 622.184529,161.31021 630.429145,147.656492 C639.41376,132.776877 649.042606,112.794813 653.973247,97.2439152 C653.973247,97.2439152 662.339273,97.3157101 671.26735,96.7312229 C674.123247,96.5449409 674.943632,97.1276332 674.415555,99.2213511 C673.777991,101.75071 663.135683,142.799313 672.848247,170.144441 C679.496581,188.863928 694.483504,194.88662 703.368888,194.88662 C713.770299,194.88662 723.720555,187.03162 729.052837,175.36739 C729.695401,176.667774 730.367068,177.926108 731.100273,179.087774 C746.155529,202.941364 775.259376,197.776492 790.032581,177.551749 C793.36694,172.988672 795.258863,169.0438 795.258863,169.0438 C798.429247,188.838287 813.822837,194.953287 822.639888,194.953287 C831.824504,194.953287 840.540786,191.188031 847.612965,174.454697 C847.908606,181.82239 848.373478,187.846877 849.10835,189.746236 C849.556171,190.907774 852.165914,192.365979 854.064632,193.07021 C862.466427,196.185851 871.035786,194.712518 874.206042,194.07162 C876.402196,193.627133 878.11476,191.86521 878.348863,187.315467 C878.964119,175.369184 878.586427,155.297646 882.207965,140.380851 C888.287196,115.346351 893.957837,105.635454 896.647965,100.82789 C898.153606,98.1342999 899.852453,97.6899409 899.913991,100.54071 C900.040914,106.308787 900.327581,123.247505 902.682709,146.005467 C904.412196,162.743159 906.722965,172.636236 908.498606,175.767261 C913.566042,184.721108 919.824632,185.145082 924.921171,185.145082 C928.163222,185.145082 934.943094,184.249184 934.336427,178.551236 C934.040786,175.773928 934.558606,158.609697 940.552324,133.946108 C944.466042,117.839941 950.991299,103.286992 953.34476,97.9667358 C954.212965,96.0046845 954.616299,97.5513511 954.602581,97.8526332 C954.10694,108.944556 952.994376,145.224825 957.513094,165.067133 C963.638478,191.94739 981.358094,194.955338 987.532965,194.955338 C1000.71502,194.955338 1011.49591,184.927902 1015.12771,158.543543 C1016.00271,152.194056 1014.7072,147.291236 1010.82591,147.291236" id="Shape"></path>
            </g>
            <g id="Instagram-icon-vector-02">
                <path d="M150.066568,27.7175789 C189.496981,27.7175789 194.358265,27.7175789 210.022402,28.7978642 C224.606254,29.3380068 232.168251,32.0387201 237.569677,33.659148 C244.591532,36.3598613 249.452815,39.6007172 254.854242,45.0021437 C260.255668,50.4035702 263.496524,55.264854 266.197238,62.2867084 C268.357808,67.6881349 270.518379,75.250132 271.058521,89.8339835 C271.598664,105.49812 272.138807,110.359404 272.138807,149.789818 C272.138807,189.220231 272.138807,194.081515 271.058521,209.745652 C270.518379,224.329503 267.817666,231.8915 266.197238,237.292927 C263.496524,244.314781 260.255668,249.176065 254.854242,254.577491 C249.452815,259.978918 244.591532,263.219774 237.569677,265.920487 C232.168251,268.081058 224.606254,270.241628 210.022402,270.781771 C194.358265,271.321914 189.496981,271.862056 150.066568,271.862056 C110.636155,271.862056 105.774871,271.862056 90.110734,270.781771 C75.5268825,270.241628 67.9648854,267.540915 62.5634589,265.920487 C55.5416045,263.219774 50.6803206,259.978918 45.2788942,254.577491 C39.8774677,249.176065 36.6366118,244.314781 33.9358985,237.292927 C31.7753279,231.8915 29.6147573,224.329503 29.0746147,209.745652 C28.534472,194.081515 27.9943294,189.220231 27.9943294,149.789818 C27.9943294,110.359404 27.9943294,105.49812 29.0746147,89.8339835 C29.6147573,75.250132 32.3154706,67.6881349 33.9358985,62.2867084 C36.6366118,55.264854 39.8774677,50.4035702 45.2788942,45.0021437 C50.6803206,39.6007172 55.5416045,36.3598613 62.5634589,33.659148 C67.9648854,31.4985774 75.5268825,29.3380068 90.110734,28.7978642 C105.774871,27.7175789 110.636155,27.7175789 150.066568,27.7175789 M150.066568,0.430843195 C109.47989,0.430843195 104.609489,0.430843195 88.9159735,1.5131546 C73.2224581,2.05431031 62.399344,4.76008883 52.6585413,8.54817876 C42.9177386,12.3362687 34.8004031,17.20667 26.1419118,25.8651613 C18.0245762,33.9824969 12.6130192,42.6409881 8.82492925,52.3817908 C5.03683932,61.5814378 2.87221651,72.4045519 1.7899051,88.639223 C1.24874939,104.332738 0.707593688,109.744295 0.707593688,149.789818 C0.707593688,190.376495 0.707593688,195.246897 1.7899051,210.940412 C2.3310608,226.633928 5.03683932,237.457042 8.82492925,247.197844 C12.6130192,256.938647 17.4834205,265.055983 26.1419118,273.714474 C34.2592473,281.831809 42.9177386,287.243366 52.6585413,291.031456 C61.8581883,294.819546 72.6813023,296.984169 88.9159735,298.066481 C104.609489,298.607636 110.021046,299.148792 150.066568,299.148792 C190.11209,299.148792 195.523647,299.148792 211.217163,298.066481 C226.910678,297.525325 237.733792,294.819546 247.474595,291.031456 C257.215397,287.243366 265.332733,282.372965 273.991224,273.714474 C282.10856,265.597138 287.520117,256.938647 291.308207,247.197844 C295.096297,237.998197 297.26092,227.175083 298.343231,210.940412 C298.884387,195.246897 299.425542,189.83534 299.425542,149.789818 C299.425542,109.744295 299.425542,104.332738 298.343231,88.639223 C297.802075,72.9457076 295.096297,62.1225935 291.308207,52.3817908 C287.520117,42.6409881 282.649716,34.5236526 273.991224,25.8651613 C265.873889,17.7478257 257.215397,12.3362687 247.474595,8.54817876 C238.274948,4.76008883 227.451834,2.59546601 211.217163,1.5131546 C195.523647,0.430843195 190.653246,0.430843195 150.066568,0.430843195 L150.066568,0.430843195 Z" id="Shape"></path>
                <path d="M150.065312,72.2262162 C107.86673,72.2262162 73.7832608,106.596102 73.7832608,149.149293 C73.7832608,191.702485 107.86673,226.07237 150.065312,226.07237 C192.263894,226.07237 226.347363,191.702485 226.347363,149.149293 C226.347363,106.596102 192.263894,72.2262162 150.065312,72.2262162 Z M150.784954,198.753894 C123.258648,198.753894 101.129657,176.327113 101.129657,148.430386 C101.129657,120.533658 123.258648,98.1068775 150.784954,98.1068775 C178.31126,98.1068775 200.440252,120.533658 200.440252,148.430386 C200.440252,176.327113 178.31126,198.753894 150.784954,198.753894 Z" id="Shape"></path>
                <circle id="Oval" cx="230.769231" cy="69.2307692" r="17.9487179"></circle>
            </g>
        </g>
    </g>
</svg>