<?xml version="1.0" encoding="UTF-8"?>
<svg width="1258px" height="300px" viewBox="0 0 1258 300" version="1.1" xmlns="http://www.w3.org/2000/svg" xmlns:xlink="http://www.w3.org/1999/xlink">
    <!-- Generator: Sketch 58 (84663) - https://sketch.com -->
    <title>spotify-logo</title>
    <desc>Created with Sketch.</desc>
    <g id="Page-1" stroke="none" stroke-width="1" fill="none" fill-rule="evenodd">
        <g id="spotify-logo" fill="#FFFFFF" fill-rule="nonzero">
            <path d="M149.999104,0 C67.1586451,0 -4.54747351e-13,67.1584579 -4.54747351e-13,150.000896 C-4.54747351e-13,232.846916 67.1586451,300 149.999104,300 C232.84852,300 300,232.846916 300,150.000896 C300,67.1638316 232.84852,0.00716490629 149.997313,0.00716490629 L149.999104,0 Z M219.722596,216.537136 C217.009775,221.041924 211.186252,222.470272 206.737225,219.705137 C171.177566,197.712247 126.412401,192.731343 73.6932438,204.927234 C68.6130341,206.099211 63.5491013,202.876273 62.391631,197.730559 C61.228735,192.584846 64.3991186,187.457444 69.4919881,186.285467 C127.184651,172.939573 176.671933,178.685925 216.593809,203.389013 C221.042835,206.154148 222.453502,212.032347 219.722596,216.537136 L219.722596,216.537136 Z M237.308678,176.077913 C233.914313,181.59066 226.694551,183.331339 221.180951,179.939707 C180.753876,155.110812 119.129076,147.920195 71.3116222,162.423457 C65.1101699,164.295135 58.5603012,160.803011 56.6781344,154.617321 C54.8103353,148.420864 58.3070708,141.888833 64.4977473,140.004594 C119.1183,123.444819 187.021779,131.466296 233.447363,159.972151 C238.960962,163.363782 240.703044,170.577728 237.308678,176.079708 L237.308678,176.077913 Z M239.321575,133.070171 C190.89151,104.057539 110.988183,101.389918 64.7490446,115.544232 C57.3239387,117.815509 49.4717725,113.587856 47.2216316,106.098974 C44.9714908,98.6064722 49.159552,90.6922909 56.5900411,88.4155839 C109.669321,72.1637322 197.9075,75.3037058 253.665775,108.688773 C260.358777,112.686584 262.54791,121.386211 258.58235,128.113175 C254.634735,134.849187 245.985868,137.069791 239.328753,133.070171 L239.321575,133.070171 Z M433.945529,115.874636 C398.047928,107.324229 391.667787,101.323073 391.667787,88.7132058 C391.667787,76.8001673 402.888891,68.7829205 419.596419,68.7829205 C435.782612,68.7829205 451.819853,74.87087 468.651508,87.4038627 C469.148017,87.7832746 469.793479,87.9345434 470.414115,87.8353508 C471.059577,87.7411177 471.605737,87.3964232 471.978119,86.8781416 L489.504886,62.1990077 C490.224824,61.1822829 490.026221,59.7811866 489.058028,59.005004 C469.02389,42.9531517 446.482381,35.1491692 420.117753,35.1491692 C381.365225,35.1491692 354.280659,58.3825701 354.280659,91.6245104 C354.280659,127.271873 377.641408,139.894139 418.00759,149.637338 C452.341187,157.540513 458.150343,164.161623 458.150343,175.995308 C458.150343,189.113537 446.43273,197.272133 427.565388,197.272133 C406.612708,197.272133 389.507973,190.204656 370.392376,173.689078 C369.920693,173.267509 369.275231,173.093922 368.67942,173.11872 C368.033959,173.168317 367.462973,173.465895 367.065766,173.93706 L347.40401,197.296931 C346.58477,198.288858 346.684072,199.727152 347.627439,200.570289 C369.871042,220.408821 397.228688,230.873647 426.770974,230.873647 C468.527381,230.873647 495.512877,208.084133 495.512877,172.796344 C495.587122,143.021187 477.737623,126.530408 434.020005,115.906874 L433.945529,115.874636 Z M592.497043,80.5868471 C574.39929,80.5868471 559.553671,87.7088801 547.289898,102.3026 L547.289898,85.8762957 C547.289898,84.5793517 546.24723,83.5229498 544.956306,83.5229498 L512.807348,83.5229498 C511.516425,83.5229498 510.473756,84.5793517 510.473756,85.8762957 L510.473756,268.393271 C510.473756,269.682775 511.516425,270.749096 512.807348,270.749096 L544.956306,270.749096 C546.24723,270.749096 547.289898,269.682775 547.289898,268.393271 L547.289898,210.787133 C559.553671,224.500518 574.39929,231.220821 592.497043,231.220821 C626.135528,231.220821 660.1961,205.356335 660.1961,155.911274 C660.245697,106.456293 626.185179,80.5843673 592.521869,80.5843673 L592.497043,80.5868471 Z M622.808918,155.911274 C622.808918,181.078931 607.293011,198.66083 585.049408,198.66083 C563.078885,198.66083 546.495484,180.28539 546.495484,155.911274 C546.495484,131.534677 563.078885,113.164197 585.049408,113.164197 C606.92063,113.161717 622.808918,131.135427 622.808918,155.908794 L622.808918,155.911274 Z M747.457503,80.5868471 C704.137093,80.5868471 670.200702,113.905662 670.200702,156.449394 C670.200702,198.53684 703.913664,231.493601 746.936169,231.493601 C790.405532,231.493601 824.441224,198.288858 824.441224,155.911274 C824.441224,113.677519 790.628961,80.5918067 747.457503,80.5918067 L747.457503,80.5868471 L747.457503,80.5868471 Z M747.457503,198.908812 C724.419485,198.908812 707.04167,180.409381 707.04167,155.898875 C707.04167,131.276776 723.823675,113.409698 746.936169,113.409698 C770.123139,113.409698 787.600256,131.90169 787.600256,156.436995 C787.600256,181.054133 770.71895,198.908812 747.457503,198.908812 L747.457503,198.908812 Z M916.940851,83.5229498 L881.564585,83.5229498 L881.564585,47.4019426 C881.564585,46.1074783 880.521916,45.0510765 879.230993,45.0510765 L847.082035,45.0510765 C845.791111,45.0510765 844.723617,46.1074783 844.723617,47.4019426 L844.723617,83.5229498 L829.282187,83.5229498 C827.991263,83.5229498 826.948595,84.5793517 826.948595,85.8762957 L826.948595,113.469214 C826.948595,114.763678 827.991263,115.82256 829.282187,115.82256 L844.723617,115.82256 L844.723617,187.228876 C844.723617,216.069142 859.097553,230.70006 887.473042,230.70006 C898.992051,230.70006 908.549849,228.319436 917.561488,223.211014 C918.306251,222.814243 918.753109,222.020702 918.753109,221.177564 L918.753109,194.891509 C918.753109,194.097968 918.331077,193.329225 917.635964,192.907656 C916.940851,192.461289 916.071961,192.436491 915.352023,192.808463 C909.170486,195.908234 903.187552,197.346528 896.48468,197.346528 C886.182119,197.346528 881.564585,192.659674 881.564585,182.194849 L881.564585,115.834959 L916.940851,115.834959 C918.231775,115.834959 919.274444,114.778557 919.274444,113.481613 L919.274444,85.8911746 C919.324095,84.5942306 918.281426,83.5378287 916.965677,83.5378287 L916.940851,83.5229498 L916.940851,83.5229498 Z M1040.17439,83.6642994 L1040.17439,79.2279076 C1040.17439,66.1766334 1045.18913,60.356504 1056.41023,60.356504 C1063.1131,60.356504 1068.50022,61.6856857 1074.53281,63.694337 C1075.27757,63.9274398 1076.04716,63.8108884 1076.64297,63.3670012 C1077.26361,62.9231141 1077.61116,62.2114068 1077.61116,61.4575425 L1077.61116,34.4027444 C1077.61116,33.3686609 1076.9657,32.4536086 1075.94786,32.1485912 C1069.59254,30.2564912 1061.4498,28.3147949 1049.23568,28.3147949 C1019.56926,28.3147949 1003.85475,45.0138793 1003.85475,76.5893829 L1003.85475,83.3840801 L988.413322,83.3840801 C987.122399,83.3840801 986.054905,84.4404819 986.054905,85.7349462 L986.054905,113.469214 C986.054905,114.763678 987.122399,115.82256 988.413322,115.82256 L1003.85475,115.82256 L1003.85475,225.938812 C1003.85475,227.253115 1004.92225,228.294638 1006.21317,228.294638 L1038.3373,228.294638 C1039.65305,228.294638 1040.69572,227.253115 1040.69572,225.938812 L1040.69572,115.829999 L1070.70969,115.829999 L1116.68642,225.938812 C1111.47308,237.494757 1106.33421,239.800986 1099.33343,239.800986 C1093.67323,239.800986 1087.6903,238.114711 1081.60806,234.766959 C1081.03708,234.469381 1080.34196,234.419784 1079.74615,234.593372 C1079.12552,234.816555 1078.60418,235.262922 1078.35593,235.858078 L1067.45756,259.738711 C1066.93622,260.879427 1067.38308,262.193729 1068.4754,262.788885 C1079.84546,268.93883 1090.09837,271.567436 1102.78417,271.567436 C1126.5173,271.567436 1139.64996,260.507454 1151.1938,230.799252 L1206.95176,86.8781416 C1207.24967,86.1540352 1207.15036,85.3356957 1206.70351,84.6934232 C1206.28147,84.0561104 1205.56154,83.6717388 1204.79195,83.6717388 L1171.32724,83.6717388 C1170.3094,83.6717388 1169.41568,84.3090517 1169.09295,85.2489021 L1134.809,183.037986 L1097.27292,85.1844269 C1096.92537,84.2743342 1096.05647,83.6717388 1095.08828,83.6717388 L1040.17439,83.6717388 L1040.17439,83.6642994 L1040.17439,83.6642994 Z M968.72674,83.5229498 L936.577782,83.5229498 C935.286859,83.5229498 934.219365,84.5793517 934.219365,85.8762957 L934.219365,225.938812 C934.219365,227.253115 935.286859,228.294638 936.577782,228.294638 L968.72674,228.294638 C970.017664,228.294638 971.085158,227.253115 971.085158,225.938812 L971.085158,85.886215 C971.085158,84.5892709 970.042489,83.5328691 968.72674,83.5328691 L968.72674,83.5229498 Z M952.838452,19.744549 C940.102996,19.744549 929.775609,30.0407472 929.775609,42.759726 C929.775609,55.4861444 940.102996,65.7947416 952.838452,65.7947416 C965.573908,65.7947416 975.87647,55.4861444 975.87647,42.759726 C975.87647,30.043227 965.549083,19.744549 952.838452,19.744549 Z M1234.40871,128.558897 C1221.69808,128.558897 1211.79272,118.354453 1211.79272,105.962809 C1211.79272,93.5711663 1221.8222,83.25017 1234.53284,83.25017 C1247.24347,83.25017 1257.14882,93.4521351 1257.14882,105.833859 C1257.14882,118.225502 1247.11934,128.558897 1234.40871,128.558897 Z M1234.53284,85.4968838 C1222.93935,85.4968838 1214.17597,94.697003 1214.17597,105.962809 C1214.17597,117.223656 1222.8897,126.299785 1234.40871,126.299785 C1246.00219,126.299785 1254.76558,117.107105 1254.76558,105.833859 C1254.76558,94.5730122 1246.05184,85.4968838 1234.53284,85.4968838 L1234.53284,85.4968838 Z M1239.54758,108.157447 L1245.95254,117.104625 L1240.54059,117.104625 L1234.78109,108.896432 L1229.84083,108.896432 L1229.84083,117.104625 L1225.32259,117.104625 L1225.32259,93.3876599 L1235.89824,93.3876599 C1241.43431,93.3876599 1245.05883,96.2072113 1245.05883,100.95358 C1245.08365,104.841932 1242.82454,107.217597 1239.5724,108.157447 L1239.54758,108.157447 Z M1235.72446,97.4570388 L1229.84083,97.4570388 L1229.84083,104.958484 L1235.72446,104.958484 C1238.65386,104.958484 1240.41647,103.52267 1240.41647,101.204042 C1240.41647,98.7639021 1238.65386,97.4570388 1235.72446,97.4570388 L1235.72446,97.4570388 Z" id="Shape"></path>
        </g>
    </g>
</svg>