<?xml version="1.0" encoding="UTF-8"?>
<svg width="2139px" height="299px" viewBox="0 0 2139 299" version="1.1" xmlns="http://www.w3.org/2000/svg" xmlns:xlink="http://www.w3.org/1999/xlink">
    <!-- Generator: Sketch 58 (84663) - https://sketch.com -->
    <title>Tidal_(service)_logo</title>
    <desc>Created with Sketch.</desc>
    <g id="Page-1" stroke="none" stroke-width="1" fill="none" fill-rule="evenodd">
        <g id="Tidal_(service)_logo" transform="translate(-2.000000, 0.000000)" fill="#FFFFFF" fill-rule="nonzero">
            <g id="g93" transform="translate(700.413223, 148.760331) scale(-1, 1) rotate(-180.000000) translate(-700.413223, -148.760331) translate(597.520661, 22.314050)">
                <polygon id="path95" points="130.585701 0 73.7465548 0 73.7465548 201.850922 0.238311066 201.850922 0.238311066 250.634534 204.093944 250.634534 204.093944 201.850922 130.585701 201.850922"></polygon>
            </g>
            <polygon id="path97" points="1028.92562 275.206612 969.421488 275.206612 969.421488 24.7933884 1028.92562 24.7933884"></polygon>
            <g id="g99" transform="translate(2062.809917, 148.760331) scale(-1, 1) rotate(-180.000000) translate(-2062.809917, -148.760331) translate(1983.471074, 22.314050)">
                <polygon id="path101" points="58.5596223 50.4123181 156.875561 50.4123181 156.875561 0.94620046 1.72336755 0.94620046 1.72336755 251.580734 58.5596223 251.580734"></polygon>
            </g>
            <g id="g103" transform="translate(1335.123967, 151.239669) scale(-1, 1) rotate(-180.000000) translate(-1335.123967, -151.239669) translate(1217.355372, 22.314050)">
                <g id="g105-Clipped" transform="translate(-0.000000, 0.000000)">
                    <g id="g105" transform="translate(1.666053, 0.000019)">
                        <g id="g111" transform="translate(0.292891, 1.781006)">
                            <path d="M0,254.470168 L92.9720063,254.470168 C161.561991,254.470168 229.809881,217.889103 229.809881,128.644457 C229.809881,44.5205347 162.91482,1.44069267 96.3618536,1.44069267 L0,1.44069267 L0,254.470168 Z M55.6836853,51.034971 L91.2770826,51.034971 C139.154789,51.034971 171.062894,81.1172598 171.062894,128.988971 C171.062894,174.464747 138.812694,205.220403 92.6299116,205.220403 L55.6836853,205.220403 L55.6836853,51.034971 Z" id="path113"></path>
                        </g>
                    </g>
                </g>
            </g>
            <g id="g115" transform="translate(1698.347107, 148.760331) scale(-1, 1) rotate(-180.000000) translate(-1698.347107, -148.760331) translate(1561.983471, 22.314050)">
                <path d="M207.524686,3.90798505e-14 L271.066395,3.90798505e-14 L166.802861,250.634534 L107.129725,250.634534 L1.86380664,3.90798505e-14 L63.6826696,3.90798505e-14 L82.3363979,49.4506062 L189.043242,49.4506062 L207.524686,3.90798505e-14 Z M97.8263537,93.9840724 L135.948247,192.00113 L173.709909,93.9840724 L97.8263537,93.9840724 Z" id="path117"></path>
            </g>
            <g id="g119" transform="translate(221.900826, 75.619835) scale(-1, 1) rotate(-180.000000) translate(-221.900826, -75.619835) translate(146.280992, 0.000000)">
                <polygon id="path121" points="149.622919 76.0551139 75.9470064 1.18712457 2.25551408 76.0551139 75.9470064 150.891447"></polygon>
            </g>
            <g id="g123" transform="translate(221.900826, 224.380165) scale(-1, 1) rotate(-180.000000) translate(-221.900826, -224.380165) translate(146.280992, 148.760331)">
                <polygon id="path125" points="149.622919 76.0551139 75.9470064 1.18712457 2.25551408 76.0551139 75.9470064 150.923103"></polygon>
            </g>
            <g id="g127" transform="translate(75.619835, 75.619835) scale(-1, 1) rotate(-180.000000) translate(-75.619835, -75.619835) ">
                <polygon id="path129" points="149.622919 76.0551139 75.9314268 1.18712457 2.25551408 76.0551139 75.9314268 150.907275"></polygon>
            </g>
            <g id="g131" transform="translate(370.661157, 75.619835) scale(-1, 1) rotate(-180.000000) translate(-370.661157, -75.619835) translate(295.041322, 0.000000)">
                <polygon id="path133" points="149.622919 76.0551139 75.9470064 1.18712457 2.25551408 76.0551139 75.9470064 150.907275"></polygon>
            </g>
        </g>
    </g>
</svg>