<?xml version="1.0" encoding="UTF-8"?>
<svg width="1335px" height="299px" viewBox="0 0 1335 299" version="1.1" xmlns="http://www.w3.org/2000/svg" xmlns:xlink="http://www.w3.org/1999/xlink">
    <!-- Generator: Sketch 58 (84663) - https://sketch.com -->
    <title>yt_logo_mono_light</title>
    <desc>Created with Sketch.</desc>
    <g id="Page-1" stroke="none" stroke-width="1" fill="none" fill-rule="evenodd">
        <g id="yt_logo_mono_light" transform="translate(-1.000000, -1.000000)" fill="#FFFFFF">
            <path d="M664.760308,243.623906 C667.069839,237.540129 668.229813,227.60014 668.229813,213.807444 L668.229813,155.687584 C668.229813,142.297671 667.069839,132.511791 664.760308,126.32294 C662.447305,120.137591 658.373502,117.041415 652.542373,117.041415 C646.909203,117.041415 642.932644,120.137591 640.623113,126.32294 C638.31011,132.511791 637.153609,142.297671 637.153609,155.687584 L637.153609,213.807444 C637.153609,227.60014 638.258016,237.540129 640.473775,243.623906 C642.682589,249.711185 646.704297,252.751322 652.542373,252.751322 C658.373502,252.751322 662.447305,249.711185 664.760308,243.623906 Z M617.996664,272.834441 C609.644153,267.160452 603.708834,258.334247 600.19418,246.362831 C596.672581,234.39842 594.915254,218.472724 594.915254,198.592748 L594.915254,171.511709 C594.915254,151.42859 596.922635,135.299751 600.947816,123.128694 C604.969525,110.957638 611.252141,102.085901 619.806085,96.5064782 C628.353083,90.9270557 639.567328,88.1355932 653.44882,88.1355932 C667.125406,88.1355932 678.086124,90.9795926 686.334446,96.6570841 C694.579295,102.338078 700.61533,111.213317 704.439078,123.282803 C708.255881,135.352288 710.169492,151.42859 710.169492,171.511709 L710.169492,198.592748 C710.169492,218.472724 708.307975,234.447454 704.588416,246.516939 C700.865384,258.586425 694.829349,267.41263 686.483784,272.985047 C678.134745,278.56447 666.823257,281.355932 652.542373,281.355932 C637.85515,281.355932 626.338756,278.511933 617.996664,272.834441 L617.996664,272.834441 Z" id="Fill-1"></path>
            <path d="M1270.3384,120.440715 C1268.20299,123.082235 1266.77118,127.400576 1266.06055,133.392231 C1265.34288,139.387393 1264.9946,148.476607 1264.9946,160.666888 L1264.9946,174.077951 L1295.85775,174.077951 L1295.85775,160.666888 C1295.85775,148.683579 1295.44967,139.590857 1294.63701,133.392231 C1293.82085,127.197112 1292.34682,122.829659 1290.20789,120.289871 C1288.06545,117.746575 1284.75504,116.476681 1280.27314,116.476681 C1275.78773,116.476681 1272.47732,117.802703 1270.3384,120.440715 Z M1264.9946,199.068904 L1264.9946,208.515934 C1264.9946,220.506259 1265.34288,229.497249 1266.06055,235.488904 C1266.77118,241.484066 1268.2452,245.85152 1270.49319,248.594771 C1272.73413,251.338023 1276.1923,252.709649 1280.88527,252.709649 C1287.19651,252.709649 1291.53065,250.271593 1293.87362,245.391972 C1296.21307,240.519368 1297.48657,232.391344 1297.69061,221.01141 L1334.0629,223.144271 C1334.26695,224.775488 1334.36897,227.010081 1334.36897,229.851556 C1334.36897,247.121414 1329.63378,260.023817 1320.15637,268.558768 C1310.68599,277.086703 1297.28253,281.355932 1279.96708,281.355932 C1259.18643,281.355932 1244.615,274.859126 1236.26334,261.851483 C1227.90464,248.854363 1223.72881,228.736014 1223.72881,201.506961 L1223.72881,168.896643 C1223.72881,140.857243 1228.05943,120.391603 1236.72068,107.485691 C1245.3784,94.5867952 1260.20313,88.1355932 1281.19133,88.1355932 C1295.65371,88.1355932 1306.75994,90.7771131 1314.50299,96.0566449 C1322.24252,101.343193 1327.69538,109.572948 1330.85451,120.742402 C1334.01365,131.922381 1335.59322,147.364573 1335.59322,167.068978 L1335.59322,199.068904 L1264.9946,199.068904 L1264.9946,199.068904 Z" id="Fill-2"></path>
            <path d="M517.179469,196.686344 L469.491525,23.7288136 L511.103102,23.7288136 L527.807867,102.124992 C532.062722,121.446658 535.198799,137.9173 537.223089,151.540426 L538.439761,151.540426 C539.855716,141.779526 542.995288,125.410707 547.854983,102.430459 L565.168084,23.7288136 L606.779661,23.7288136 L558.486878,196.686344 L558.486878,279.661017 L517.179469,279.661017 L517.179469,196.686344" id="Fill-3"></path>
            <path d="M847.457627,91.5254237 L847.457627,278.311573 L814.664105,278.311573 L811.018827,255.457838 L810.110129,255.457838 C801.201391,272.724403 787.840032,281.355932 770.029546,281.355932 C757.681734,281.355932 748.573782,277.297956 742.702193,269.167975 C736.830604,261.048515 733.898305,248.348488 733.898305,231.081922 L733.898305,91.5254237 L775.79978,91.5254237 L775.79978,228.644331 C775.79978,236.977737 776.711973,242.91564 778.532864,246.468561 C780.353756,250.02499 783.390905,251.799697 787.640817,251.799697 C791.286095,251.799697 794.777593,250.687874 798.115312,248.446693 C801.456525,246.216034 803.934476,243.3751 805.556153,239.920384 L805.556153,91.5254237 L847.457627,91.5254237" id="Fill-4"></path>
            <path d="M1062.71186,91.5254237 L1062.71186,278.311573 L1029.91834,278.311573 L1026.27306,255.457838 L1025.36786,255.457838 C1016.45213,272.724403 1003.09427,281.355932 985.283783,281.355932 C972.935972,281.355932 963.828019,277.297956 957.95643,269.167975 C952.084842,261.048515 949.152542,248.348488 949.152542,231.081922 L949.152542,91.5254237 L991.054017,91.5254237 L991.054017,228.644331 C991.054017,236.977737 991.962715,242.91564 993.783607,246.468561 C995.607993,250.02499 998.645142,251.799697 1002.89505,251.799697 C1006.54033,251.799697 1010.03183,250.687874 1013.36955,248.446693 C1016.71076,246.216034 1019.18871,243.3751 1020.81039,239.920384 L1020.81039,91.5254237 L1062.71186,91.5254237" id="Fill-5"></path>
            <polyline id="Fill-6" points="962.711864 57.5874257 920.699222 57.5874257 920.699222 279.661017 879.300778 279.661017 879.300778 57.5874257 837.288136 57.5874257 837.288136 23.7288136 962.711864 23.7288136 962.711864 57.5874257"></polyline>
            <path d="M1162.97343,197.890639 C1162.97343,211.500521 1162.41194,222.164693 1161.30292,229.879648 C1160.1939,237.605123 1158.32461,243.086248 1155.69854,246.333543 C1153.07247,249.584345 1149.53268,251.204485 1145.0966,251.204485 C1141.65795,251.204485 1138.47737,250.397922 1135.55137,248.767261 C1132.6184,247.143613 1130.2504,244.709896 1128.42994,241.455587 L1128.42994,135.434571 C1129.84237,130.363741 1132.26616,126.197666 1135.70133,122.943357 C1139.1365,119.69957 1142.8681,118.072415 1146.91009,118.072415 C1151.15436,118.072415 1154.43259,119.748665 1156.75874,123.097657 C1159.07791,126.446648 1160.6961,132.085579 1161.60633,140.007435 C1162.51657,147.925785 1162.97343,159.200139 1162.97343,173.823486 L1162.97343,197.890639 Z M1201.29734,121.712471 C1198.76892,109.936645 1194.67811,101.408112 1189.0249,96.1233683 C1183.36821,90.8456376 1175.59113,88.2050189 1165.69715,88.2050189 C1158.0212,88.2050189 1150.85095,90.3897539 1144.18637,94.7522103 C1137.5218,99.1216803 1132.3673,104.858801 1128.73335,111.96708 L1128.42645,111.96708 L1128.42994,13.559322 L1088.13559,13.559322 L1088.13559,278.613616 L1122.67211,278.613616 L1126.91637,260.946369 L1127.82312,260.946369 C1131.05252,267.241071 1135.90012,272.217217 1142.36591,275.874807 C1148.82821,279.528891 1156.00195,281.355932 1163.88017,281.355932 C1178.01493,281.355932 1188.41808,274.805234 1195.08614,261.707344 C1201.75071,248.602441 1205.08475,228.143783 1205.08475,200.317343 L1205.08475,170.765558 C1205.08475,149.84751 1203.81879,133.498819 1201.29734,121.712471 L1201.29734,121.712471 Z" id="Fill-7"></path>
            <path d="M215.029614,1.69356199 C224.889164,1.70723705 348.770538,2.04911334 380.620539,10.5960206 C398.925016,15.4965449 413.338873,29.9385339 418.231039,48.2707744 C426.76337,80.1785547 427.104663,145.355828 427.118315,150.518958 L427.118315,151.171113 C427.104663,156.334496 426.76337,221.514867 418.231039,253.41928 C413.338873,271.75152 398.925016,286.197017 380.620539,291.094034 C348.438767,299.733374 222.298316,299.992554 214.758852,300.00033 L214.053036,300.00033 C206.51377,299.992554 80.3766133,299.733374 48.1948418,291.094034 C29.8903644,286.197017 15.4765078,271.75152 10.5843412,253.41928 C2.04864858,221.514867 1.70722088,156.334496 1.69356377,151.171113 L1.69356377,150.518958 C1.70722088,145.355828 2.04864858,80.1785547 10.5843412,48.2707744 C15.4765078,29.9385339 29.8903644,15.4965449 48.1948418,10.5960206 C80.0448424,2.04911334 203.922989,1.70723705 213.782281,1.69356199 Z M172.107835,86.6181022 L172.107835,214.647583 L282.289844,150.636355 L172.107835,86.6181022 Z" id="Combined-Shape"></path>
        </g>
    </g>
</svg>